<?xml version="1.0" encoding="UTF-8"?>
<!-- Generator: visioncortex VTracer 0.6.2 -->
<svg version="1.1" xmlns="http://www.w3.org/2000/svg" width="1280" height="1280">
<path d="M0 0 C1.45775309 -0.00387432 2.91550238 -0.00950091 4.3732428 -0.0167096 C8.37428839 -0.03142873 12.37494144 -0.0213164 16.37597456 -0.0070976 C20.73052162 0.00396293 25.08501448 -0.00820854 29.43955731 -0.01740509 C37.06979815 -0.03031008 44.69992285 -0.02834588 52.33016396 -0.0166254 C63.67633233 0.00075523 75.02240935 -0.00474136 86.36858245 -0.01479231 C106.63117933 -0.03198933 126.89372213 -0.02644049 147.15631791 -0.01143513 C164.88581632 0.00161004 182.61529596 0.00681388 200.34479904 0.00424671 C201.52024931 0.0040863 202.69569958 0.00392588 203.90676956 0.0037606 C208.67810723 0.00309703 213.4494449 0.00239463 218.22078256 0.00163526 C262.98678388 -0.00539017 307.75275213 0.01010791 352.51874504 0.03625872 C392.30980042 0.05938013 432.10081946 0.06475988 471.89188004 0.05452633 C482.08288827 0.05192442 492.2738965 0.04933944 502.46490479 0.04692841 C503.71945439 0.04663096 504.97400399 0.04633351 506.26657025 0.04602705 C539.49782407 0.03841689 572.7290749 0.04481995 605.96032739 0.05562443 C609.53478068 0.05677225 613.10923397 0.05791543 616.68368726 0.05905125 C619.05497004 0.0598065 621.42625282 0.06057214 623.79753559 0.06134826 C641.52071609 0.06701239 659.24388719 0.06567277 676.96706772 0.06112003 C697.11119662 0.056019 717.2552903 0.06183526 737.3994104 0.08201433 C748.68044642 0.09302345 759.96141321 0.09577278 771.24245138 0.0867258 C778.76938591 0.08152254 786.29626099 0.08716176 793.82318302 0.10177914 C798.11716109 0.10981561 802.41099881 0.11305056 806.70497629 0.10320658 C810.60820169 0.09435984 814.51115654 0.09921495 818.4143571 0.11518602 C819.82052285 0.11851137 821.22671161 0.11677344 822.63286226 0.10945753 C824.53843728 0.1002727 826.44407776 0.11131987 828.34963679 0.12337309 C829.40588391 0.12380011 830.46213103 0.12422713 831.55038564 0.12466708 C835.05095641 0.56671962 837.45904255 1.7979776 840.52713394 3.50057125 C841.9310703 4.01584577 843.34758164 4.49883858 844.77713394 4.93807125 C848.95306029 6.27632953 852.98157764 7.86840748 857.03885269 9.527915 C859.45038292 10.47056967 861.871866 11.28140678 864.33963394 12.06307125 C867.73770779 13.16402337 870.4973186 14.58700367 873.52713394 16.50057125 C875.22209287 17.22108363 876.9172537 17.94113012 878.614048 18.65730953 C881.68700043 20.01182429 884.63709249 21.59292479 887.58963394 23.18807125 C888.23448746 23.5347485 888.87934097 23.88142574 889.5437355 24.23860836 C914.78404235 37.87711156 914.78404235 37.87711156 925.52713394 46.50057125 C926.18713394 46.83057125 926.84713394 47.16057125 927.52713394 47.50057125 C927.52713394 48.16057125 927.52713394 48.82057125 927.52713394 49.50057125 C928.18713394 49.70682125 928.84713394 49.91307125 929.52713394 50.12557125 C933.59893581 51.99181377 937.21510392 54.47618652 940.52713394 57.50057125 C940.52713394 58.16057125 940.52713394 58.82057125 940.52713394 59.50057125 C941.22193863 59.71713375 941.91674332 59.93369625 942.63260269 60.15682125 C946.33399566 61.87514673 948.8883289 64.22498182 951.83963394 67.00057125 C952.66431168 67.74887203 952.66431168 67.74887203 953.50564957 68.51229 C954.89040276 69.79555196 956.21432737 71.14379508 957.52713394 72.50057125 C957.52713394 73.16057125 957.52713394 73.82057125 957.52713394 74.50057125 C958.64475113 74.88342281 958.64475113 74.88342281 959.78494644 75.27400875 C962.676864 76.56754452 964.22211573 77.85509585 966.40213394 80.12557125 C967.09564957 80.84615719 967.78916519 81.56674313 968.50369644 82.309165 C970.87662471 84.8790738 973.18401384 87.49425867 975.45682144 90.152915 C977.13786125 92.05915071 978.84838313 93.91165761 980.59744644 95.7544775 C981.41293961 96.61843136 981.41293961 96.61843136 982.24490738 97.49983883 C983.3334405 98.64979036 984.42769342 99.7943596 985.5281105 100.9329443 C989.43323626 105.07415607 989.43323626 105.07415607 989.9944191 107.62264156 C990.170215 108.24235836 990.34601089 108.86207516 990.52713394 109.50057125 C991.51713394 109.83057125 992.50713394 110.16057125 993.52713394 110.50057125 C995.35916519 112.7232275 995.35916519 112.7232275 997.33963394 115.56307125 C999.76674195 119.00555656 1002.20298243 122.4166193 1004.77713394 125.75057125 C1006.93033664 128.60414365 1008.75555002 131.52562631 1010.47244644 134.66854 C1011.68346422 136.77212273 1013.02964473 138.74872818 1014.40213394 140.75057125 C1017.31615142 145.05503361 1019.7976178 149.5271295 1022.23025894 154.11775875 C1023.56359795 156.65217735 1023.56359795 156.65217735 1025.52713394 159.50057125 C1025.52713394 160.49057125 1025.52713394 161.48057125 1025.52713394 162.50057125 C1026.18713394 162.50057125 1026.84713394 162.50057125 1027.52713394 162.50057125 C1035.74331891 179.87022443 1035.74331891 179.87022443 1038.73025894 186.73494625 C1039.45176897 188.33358611 1040.26597159 189.88958604 1041.08963394 191.43807125 C1042.73575328 194.94502115 1043.77434947 198.46285982 1044.83963394 202.18025875 C1045.58425923 204.6933691 1046.54290628 207.0728097 1047.52713394 209.50057125 C1050.12673062 216.39345789 1049.8052037 223.28886712 1049.77881622 230.57026577 C1049.78090348 232.02080486 1049.78386672 233.47134291 1049.78762496 234.92187864 C1049.79542445 238.91679627 1049.79074716 242.91161743 1049.78406905 246.90653352 C1049.77900297 251.24933465 1049.78551258 255.59212081 1049.79055572 259.93491983 C1049.79778707 267.54921415 1049.79755506 275.16348013 1049.7924614 282.77777576 C1049.78490756 294.10035671 1049.78875812 305.42291367 1049.79487801 316.74549444 C1049.8054199 336.96566022 1049.80449257 357.18581338 1049.79872018 377.40598036 C1049.79369341 395.10075563 1049.79237364 412.79552626 1049.79476547 430.49030209 C1049.79499463 432.24941009 1049.79499463 432.24941009 1049.79522841 434.04405564 C1049.79585107 438.80432212 1049.79648786 443.56458861 1049.79714794 448.32485509 C1049.80326895 492.99975848 1049.79771424 537.67465382 1049.78695415 582.34955596 C1049.77746261 622.05956667 1049.77831185 661.76956456 1049.78787613 701.47957516 C1049.79858031 746.07162914 1049.80283489 790.66367601 1049.7966516 835.25573111 C1049.79601015 840.00743421 1049.79538447 844.75913731 1049.79476547 849.51084042 C1049.79460732 850.68087141 1049.79444916 851.8509024 1049.79428622 853.05638888 C1049.79200917 870.74208488 1049.79467573 888.42777574 1049.79972458 906.11347103 C1049.80543539 926.21847522 1049.80402991 946.32346479 1049.79316309 966.42846715 C1049.7872789 977.68704815 1049.7869239 988.94559749 1049.79445544 1000.20417768 C1049.7989282 1007.71752051 1049.79617088 1015.23083788 1049.7874459 1022.74417692 C1049.78267265 1027.0296075 1049.78109412 1031.31497505 1049.78825787 1035.60040373 C1049.7947055 1039.49704818 1049.79199246 1043.39357353 1049.78189655 1047.29020926 C1049.77987814 1048.69290044 1049.78122516 1050.09560143 1049.78630842 1051.49828485 C1049.82956931 1064.344883 1049.82956931 1064.344883 1047.52713394 1070.50057125 C1047.23604752 1071.33612545 1046.94496109 1072.17167965 1046.64505386 1073.03255367 C1046.35219498 1073.79930416 1046.05933609 1074.56605465 1045.75760269 1075.35604 C1045.42897232 1076.21938961 1045.10034195 1077.08273922 1044.76175308 1077.97225094 C1044.24342911 1079.31658199 1044.24342911 1079.31658199 1043.71463394 1080.68807125 C1043.17407364 1082.09234371 1043.17407364 1082.09234371 1042.62259293 1083.52498531 C1041.59492878 1086.18514759 1040.56128293 1088.84292526 1039.52713394 1091.50057125 C1039.09143082 1092.63623531 1038.65572769 1093.77189938 1038.20682144 1094.9419775 C1033.79807502 1106.02550433 1028.04645119 1116.63680622 1021.66556168 1126.70394039 C1019.55442458 1130.03567058 1017.56369524 1133.43881524 1015.55447769 1136.8326025 C1014.85824604 1137.99298859 1014.16162611 1139.1531418 1013.46463394 1140.31307125 C1013.11336441 1140.91055172 1012.76209488 1141.50803219 1012.40018082 1142.12361813 C1011.49725775 1143.61711091 1010.51790336 1145.06385042 1009.52713394 1146.50057125 C1008.86713394 1146.50057125 1008.20713394 1146.50057125 1007.52713394 1146.50057125 C1007.45365738 1147.0213525 1007.38018082 1147.54213375 1007.30447769 1148.07869625 C1006.19269886 1151.54252979 1004.15999323 1154.30217226 1002.08963394 1157.25057125 C1001.47765152 1158.15355953 1001.47765152 1158.15355953 1000.85330582 1159.07479 C999.80009303 1160.59017937 998.66895352 1162.05077465 997.52713394 1163.50057125 C996.86713394 1163.50057125 996.20713394 1163.50057125 995.52713394 1163.50057125 C995.1674855 1164.58338375 995.1674855 1164.58338375 994.80057144 1165.68807125 C993.34371946 1168.90565846 991.56762578 1170.9326065 989.15213394 1173.50057125 C986.1264527 1176.73875854 983.28262286 1180.0300504 980.52713394 1183.50057125 C978.88345254 1185.18991047 977.21284634 1186.85317049 975.52713394 1188.50057125 C974.8581105 1189.19150875 974.18908707 1189.88244625 973.49979019 1190.59432125 C972.78693863 1191.32650875 972.07408707 1192.05869625 971.33963394 1192.81307125 C970.32836441 1193.85914547 970.32836441 1193.85914547 969.29666519 1194.9263525 C967.52713394 1196.50057125 967.52713394 1196.50057125 965.52713394 1196.50057125 C965.19713394 1197.82057125 964.86713394 1199.14057125 964.52713394 1200.50057125 C963.90838394 1200.58307125 963.28963394 1200.66557125 962.65213394 1200.75057125 C960.34740535 1201.29451563 960.34740535 1201.29451563 959.46463394 1203.50057125 C959.00057144 1204.49057125 959.00057144 1204.49057125 958.52713394 1205.50057125 C957.53713394 1205.83057125 956.54713394 1206.16057125 955.52713394 1206.50057125 C955.52713394 1207.16057125 955.52713394 1207.82057125 955.52713394 1208.50057125 C953.95772593 1209.93869798 952.31839359 1211.30087175 950.65213394 1212.62557125 C949.13232925 1213.83986813 949.13232925 1213.83986813 947.58182144 1215.07869625 C946.57377457 1215.877915 945.56572769 1216.67713375 944.52713394 1217.50057125 C943.72533707 1218.155415 942.92354019 1218.81025875 942.09744644 1219.48494625 C935.33873367 1224.99204554 928.32774203 1230.13986723 921.26346207 1235.24471188 C919.74859614 1236.34039106 918.23896922 1237.44330633 916.73025894 1238.54744625 C911.73445254 1242.14315404 906.62033999 1245.16454818 901.17557144 1248.03182125 C898.68599094 1249.41247356 896.41146213 1250.92018921 894.08963394 1252.56307125 C889.89897322 1255.43348842 885.56758885 1257.22006528 880.85525894 1259.07479 C876.33596112 1261.01087416 872.06836965 1263.33858125 867.77859879 1265.73445797 C864.09432715 1267.76733129 860.53895407 1269.25428053 856.52713394 1270.50057125 C853.91308647 1271.45352184 851.31525701 1272.44914115 848.71463394 1273.43807125 C843.02296474 1275.59088215 837.31069846 1277.60595529 831.52713394 1279.50057125 C830.86713394 1279.83057125 830.20713394 1280.16057125 829.52713394 1280.50057125 C827.66180995 1280.59673669 825.79298547 1280.62729777 823.92518449 1280.62822175 C822.72389047 1280.63123772 821.52259646 1280.63425369 820.28489959 1280.63736105 C818.93715839 1280.6356618 817.5894173 1280.63387104 816.24167633 1280.63199902 C814.81542274 1280.63364739 813.38916959 1280.63573308 811.96291721 1280.63821912 C808.01214937 1280.64381187 804.0614031 1280.64310861 800.11063256 1280.64144153 C795.82437126 1280.64071331 791.53811619 1280.64572658 787.25185752 1280.65001655 C778.73645325 1280.65761466 770.22105525 1280.65979052 761.70564794 1280.6603456 C751.51182733 1280.66125746 741.31801256 1280.66791967 731.12419445 1280.67469243 C706.48261789 1280.69077299 681.84104193 1280.69665794 657.19946106 1280.70144117 C645.54889436 1280.70377496 633.89832815 1280.70737736 622.24776183 1280.71113655 C582.38889187 1280.72397358 542.53002219 1280.73469288 502.67115021 1280.73813915 C500.16777304 1280.73836079 497.66439588 1280.73858257 495.16101871 1280.7388045 C492.65149592 1280.73902515 490.14197313 1280.73924563 487.63245034 1280.73946595 C482.5976704 1280.73990851 477.56289045 1280.74035563 472.5281105 1280.74080563 C471.27977234 1280.74091502 470.03143417 1280.74102441 468.74526758 1280.74113711 C428.25305142 1280.74476906 387.76085315 1280.76069352 347.26864384 1280.78399599 C304.4863865 1280.80857145 261.70413938 1280.82231092 218.92187476 1280.82350707 C214.2288092 1280.82367853 209.53574363 1280.82389396 204.84267807 1280.8241415 C203.68706181 1280.82419727 202.53144554 1280.82425304 201.34081061 1280.8243105 C182.71382038 1280.82546292 164.08684845 1280.83650106 145.4598644 1280.85102856 C126.7502932 1280.86536856 108.04074554 1280.8686447 89.33117035 1280.86058858 C78.20569403 1280.85612056 67.08029354 1280.86003959 55.95482712 1280.87582709 C48.53131087 1280.88553924 41.10784805 1280.88443506 33.68433235 1280.87439086 C29.44927195 1280.86897149 25.21435771 1280.86837592 20.97930911 1280.88089958 C17.12945735 1280.89218965 13.27987149 1280.88976842 9.4300292 1280.8762325 C8.04316021 1280.8737892 6.65627106 1280.87641515 5.26942424 1280.88462898 C3.38980183 1280.89503287 1.51009989 1280.88517656 -0.36951995 1280.87431741 C-1.93224253 1280.87468371 -1.93224253 1280.87468371 -3.52653526 1280.87505741 C-7.01229896 1280.43200795 -9.41027791 1279.18403628 -12.47286606 1277.50057125 C-14.35435842 1276.87252005 -16.25179699 1276.29078039 -18.16036606 1275.75057125 C-33.14682394 1271.24951905 -47.49207701 1265.51593147 -61.47286606 1258.50057125 C-62.23599106 1258.12029781 -62.99911606 1257.74002438 -63.78536606 1257.3482275 C-75.53069272 1251.4562462 -86.57254624 1244.82614516 -97.47286606 1237.50057125 C-98.64416007 1236.72235234 -99.81600468 1235.94496128 -100.98849106 1235.16854 C-103.82228283 1233.28748857 -106.64869427 1231.39601689 -109.47286606 1229.50057125 C-110.57243637 1228.80834469 -111.67200668 1228.11611813 -112.80489731 1227.402915 C-113.685327 1226.77514156 -114.56575668 1226.14736813 -115.47286606 1225.50057125 C-115.47286606 1224.84057125 -115.47286606 1224.18057125 -115.47286606 1223.50057125 C-116.25403793 1223.18152828 -116.25403793 1223.18152828 -117.05099106 1222.85604 C-120.4862826 1220.9333849 -123.27004912 1218.40038779 -126.22286606 1215.81307125 C-127.15884628 1215.00059933 -127.15884628 1215.00059933 -128.1137352 1214.17171383 C-129.34907053 1213.09852128 -130.58292144 1212.02361722 -131.81515121 1210.94686031 C-133.17831947 1209.75755122 -134.5491655 1208.57704796 -135.92208481 1207.39900875 C-145.08146116 1199.51726643 -145.08146116 1199.51726643 -148.47286606 1195.50057125 C-148.47286606 1194.84057125 -148.47286606 1194.18057125 -148.47286606 1193.50057125 C-149.05036606 1193.25307125 -149.62786606 1193.00557125 -150.22286606 1192.75057125 C-152.80226585 1191.31757137 -154.53408198 1189.71632449 -156.47286606 1187.50057125 C-156.47286606 1186.84057125 -156.47286606 1186.18057125 -156.47286606 1185.50057125 C-157.13286606 1185.50057125 -157.79286606 1185.50057125 -158.47286606 1185.50057125 C-158.47286606 1184.84057125 -158.47286606 1184.18057125 -158.47286606 1183.50057125 C-159.13286606 1183.50057125 -159.79286606 1183.50057125 -160.47286606 1183.50057125 C-164.47286606 1179.02998302 -164.47286606 1179.02998302 -164.47286606 1176.50057125 C-165.79286606 1175.84057125 -167.11286606 1175.18057125 -168.47286606 1174.50057125 C-168.47286606 1173.51057125 -168.47286606 1172.52057125 -168.47286606 1171.50057125 C-169.46286606 1171.17057125 -170.45286606 1170.84057125 -171.47286606 1170.50057125 C-171.47286606 1169.84057125 -171.47286606 1169.18057125 -171.47286606 1168.50057125 C-172.13286606 1168.50057125 -172.79286606 1168.50057125 -173.47286606 1168.50057125 C-174.51210981 1166.85808831 -175.50357878 1165.18528486 -176.47286606 1163.50057125 C-177.86984608 1161.61085797 -179.28809801 1159.73675638 -180.72286606 1157.87557125 C-184.35453486 1153.07847227 -187.68316039 1148.19225734 -190.85567856 1143.0826025 C-192.36103354 1140.6791251 -193.93192892 1138.33926324 -195.53536606 1136.00057125 C-201.38617103 1127.25532044 -205.90991011 1117.73640742 -210.56417465 1108.32088375 C-211.48444113 1106.47738379 -212.42312858 1104.64438029 -213.36739731 1102.81307125 C-216.29291987 1097.11371424 -219.07836295 1091.53932694 -220.86739731 1085.36775875 C-221.44214038 1083.43351502 -221.44214038 1083.43351502 -222.49239731 1081.47713375 C-223.69688614 1079.04896104 -224.21548778 1076.56079612 -224.83614731 1073.934165 C-226.56364985 1065.6301641 -226.56364985 1065.6301641 -230.47286606 1058.50057125 C-230.57083638 1056.67023075 -230.59733801 1054.8360528 -230.59706455 1053.00309223 C-230.59931185 1051.79964132 -230.60155914 1050.59619041 -230.60387453 1049.3562713 C-230.60130823 1048.00090298 -230.59865129 1046.64553484 -230.59591389 1045.29016685 C-230.59665263 1043.85985244 -230.59783026 1042.42953819 -230.59941038 1040.99922445 C-230.60249997 1037.03255706 -230.59928737 1033.065915 -230.59513225 1029.09924948 C-230.59171546 1024.79758516 -230.59406551 1020.49592357 -230.59570974 1016.19425875 C-230.5977896 1008.64309309 -230.59612932 1001.09193528 -230.59207153 993.54077053 C-230.58605438 982.31233695 -230.58573406 971.08390835 -230.58661352 959.85547344 C-230.58792971 940.97053341 -230.58457736 922.08559686 -230.57859612 903.20065784 C-230.5726861 884.49282915 -230.56883159 865.7850019 -230.5677433 847.07717228 C-230.56767456 845.91548242 -230.56760582 844.75379256 -230.567535 843.55689997 C-230.56719668 837.65765129 -230.56689529 831.75840261 -230.56660812 825.85915393 C-230.56450577 784.03707004 -230.55776302 742.21498805 -230.54830551 700.39290524 C-230.53912628 659.75455898 -230.53204012 619.11621325 -230.5277977 578.47786617 C-230.52766617 577.22597884 -230.52753465 575.97409152 -230.52739913 574.68426821 C-230.52608065 562.1126987 -230.52480483 549.54112918 -230.52356028 536.96955966 C-230.52102383 511.35811643 -230.51820257 485.74667324 -230.5152092 460.13523006 C-230.51507191 458.95756764 -230.51493462 457.77990521 -230.51479317 456.56655604 C-230.50558712 377.87789365 -230.48974129 299.18923232 -230.47286606 220.50057125 C-229.81286606 220.50057125 -229.15286606 220.50057125 -228.47286606 220.50057125 C-228.29304184 218.98463375 -228.29304184 218.98463375 -228.10958481 217.43807125 C-225.83411296 203.36644167 -219.26810791 188.40082384 -212.64864731 175.84432125 C-211.71431849 173.98187178 -210.86838726 172.07513365 -210.05489731 170.15682125 C-208.47671046 166.5094561 -206.72716044 162.99822541 -204.84786606 159.50057125 C-204.50449203 158.85974606 -204.16111801 158.21892086 -203.80733871 157.55867672 C-198.21661797 147.23056902 -192.14192559 137.16894327 -185.47286606 127.50057125 C-184.55634262 126.13158688 -184.55634262 126.13158688 -183.62130356 124.73494625 C-182.681577 123.35049313 -182.681577 123.35049313 -181.72286606 121.93807125 C-181.15052231 121.09115719 -180.57817856 120.24424313 -179.98849106 119.371665 C-179.48833481 118.75420406 -178.98817856 118.13674313 -178.47286606 117.50057125 C-177.81286606 117.50057125 -177.15286606 117.50057125 -176.47286606 117.50057125 C-176.22923325 116.7838525 -175.98560043 116.06713375 -175.73458481 115.32869625 C-174.30851638 112.13218375 -172.54929393 109.9158495 -170.28536606 107.25057125 C-167.39236199 103.81224054 -164.59036938 100.356843 -161.91036606 96.75057125 C-159.04487046 93.01876303 -155.86689041 90.06952592 -152.26192856 87.06307125 C-150.01212306 85.09817562 -148.2613459 82.88521104 -146.47286606 80.50057125 C-144.84786606 78.68807125 -144.84786606 78.68807125 -143.47286606 77.50057125 C-142.81286606 77.50057125 -142.15286606 77.50057125 -141.47286606 77.50057125 C-141.47286606 76.84057125 -141.47286606 76.18057125 -141.47286606 75.50057125 C-139.82833481 73.809165 -139.82833481 73.809165 -137.66036606 71.93807125 C-136.95267075 71.31803219 -136.24497543 70.69799313 -135.51583481 70.059165 C-133.47286606 68.50057125 -133.47286606 68.50057125 -130.47286606 67.50057125 C-130.47286606 66.84057125 -130.47286606 66.18057125 -130.47286606 65.50057125 C-128.60958481 63.809165 -128.60958481 63.809165 -126.16036606 61.93807125 C-124.95960434 61.00801266 -124.95960434 61.00801266 -123.73458481 60.059165 C-121.47286606 58.50057125 -121.47286606 58.50057125 -118.47286606 57.50057125 C-118.47286606 56.84057125 -118.47286606 56.18057125 -118.47286606 55.50057125 C-117.07684255 54.51489404 -115.67225794 53.53928322 -114.22872543 52.62459469 C-112.49704885 51.516052 -110.83678457 50.34507511 -109.17599106 49.13338375 C-103.17259192 44.77197677 -97.18756934 40.58176535 -90.75802231 36.85994625 C-88.46462774 35.49567051 -86.28958272 34.02183434 -84.09786606 32.50057125 C-79.7491719 29.55542389 -75.17453956 27.29418884 -70.45333481 25.00838375 C-67.64843158 23.58938946 -65.01226627 22.04029854 -62.34786606 20.37557125 C-57.5730789 17.45300678 -52.71284171 15.43428151 -47.47286606 13.50057125 C-45.30537388 12.66938744 -43.13874646 11.83594599 -40.97286606 11.00057125 C-39.87329575 10.57904781 -38.77372543 10.15752438 -37.64083481 9.7232275 C-34.8483067 8.64547004 -32.06422935 7.55048905 -29.28536606 6.43807125 C-28.53065494 6.14094161 -27.77594383 5.84381197 -26.99836268 5.53767839 C-25.42037576 4.8896706 -23.85780578 4.20097569 -22.32420705 3.45396047 C-14.93975691 0.02650563 -8.01995185 -0.06004794 0 0 Z " fill="#0F0D10" transform="translate(230.4728660583496,-0.5005712509155273)"/>
<path d="M0 0 C0.65946583 -0.00290688 1.31893167 -0.00581376 1.99838132 -0.00880873 C4.2298566 -0.01616443 6.46106168 -0.00913968 8.6925354 -0.002285 C10.29993297 -0.00458727 11.90732948 -0.00776222 13.51472378 -0.01173949 C17.94894266 -0.02012899 22.38307603 -0.01594341 26.81729531 -0.00976706 C31.59323487 -0.00526017 36.36915924 -0.01221772 41.14509583 -0.0177269 C50.51021353 -0.02664311 59.87529927 -0.02468853 69.24041826 -0.01890162 C76.85327468 -0.01439171 84.46612212 -0.01376932 92.07897949 -0.01594925 C93.16098753 -0.01625572 94.24299556 -0.01656218 95.35779172 -0.01687793 C97.55571835 -0.01751737 99.75364497 -0.0181658 101.95157158 -0.01882312 C122.58848127 -0.02453349 143.22537323 -0.01795858 163.86228001 -0.00722238 C181.56742613 0.00170366 199.27254601 0.00017027 216.97769165 -0.00905991 C237.52647077 -0.0197675 258.07523429 -0.02397343 278.62401581 -0.01783538 C280.81647237 -0.01719828 283.00892893 -0.01656953 285.2013855 -0.01594925 C286.28015552 -0.0156407 287.35892553 -0.01533215 288.47038555 -0.01501425 C296.06948407 -0.01328802 303.66857269 -0.01620107 311.26766968 -0.02090836 C320.53574121 -0.02652306 329.80377888 -0.02498874 339.07184654 -0.01434687 C343.80009039 -0.00909656 348.52827781 -0.00702238 353.25652122 -0.01364517 C357.58822738 -0.01962059 361.91982499 -0.0163032 366.25152135 -0.00569007 C367.81555806 -0.00346266 369.37960401 -0.00457746 370.94363475 -0.00944164 C380.90818237 -0.03804505 390.43134777 0.14319438 399.67544556 4.25168228 C403.96988261 5.74539952 408.29896861 7.02626874 412.67544556 8.25168228 C412.67544556 8.91168228 412.67544556 9.57168228 412.67544556 10.25168228 C413.52107056 10.49918228 414.36669556 10.74668228 415.23794556 11.00168228 C419.8789149 12.6893075 424.14280548 14.71904221 427.67544556 18.25168228 C428.29419556 18.49918228 428.91294556 18.74668228 429.55044556 19.00168228 C431.67544556 20.25168228 431.67544556 20.25168228 433.61294556 23.18918228 C435.77767298 26.40347451 437.37391299 27.3892793 440.67544556 29.25168228 C443.67544556 32.66547538 443.67544556 32.66547538 443.67544556 35.25168228 C444.66544556 35.58168228 445.65544556 35.91168228 446.67544556 36.25168228 C448.32388306 37.92355728 448.32388306 37.92355728 450.05044556 40.00168228 C455.00414367 46.29110528 455.00414367 46.29110528 461.67544556 50.25168228 C462.00544556 51.24168228 462.33544556 52.23168228 462.67544556 53.25168228 C464.31847509 54.94165551 465.99015868 56.60384622 467.67544556 58.25168228 C469.25668161 60.08095537 470.80589954 61.93244437 472.34341431 63.79855728 C473.63341465 65.37947411 473.63341465 65.37947411 475.67544556 66.25168228 C475.67544556 66.91168228 475.67544556 67.57168228 475.67544556 68.25168228 C476.66544556 68.58168228 477.65544556 68.91168228 478.67544556 69.25168228 C480.36294556 70.68918228 480.36294556 70.68918228 481.67544556 72.25168228 C481.67544556 72.91168228 481.67544556 73.57168228 481.67544556 74.25168228 C482.33544556 74.25168228 482.99544556 74.25168228 483.67544556 74.25168228 C483.67544556 74.91168228 483.67544556 75.57168228 483.67544556 76.25168228 C484.45919556 76.45793228 485.24294556 76.66418228 486.05044556 76.87668228 C489.57642161 78.72362212 489.50346826 80.57948676 490.67544556 84.25168228 C492.61162981 84.92324845 492.61162981 84.92324845 494.67544556 85.25168228 C497.05965017 87.80618722 497.67544556 88.69213459 497.67544556 92.25168228 C498.45919556 92.31355728 499.24294556 92.37543228 500.05044556 92.43918228 C500.91669556 92.70730728 501.78294556 92.97543228 502.67544556 93.25168228 C503.86294556 95.75168228 503.86294556 95.75168228 504.67544556 98.25168228 C505.33544556 98.58168228 505.99544556 98.91168228 506.67544556 99.25168228 C506.67544556 100.24168228 506.67544556 101.23168228 506.67544556 102.25168228 C507.54169556 102.65386978 507.54169556 102.65386978 508.42544556 103.06418228 C512.974649 105.46515077 515.10131323 107.80545372 517.67544556 112.25168228 C518.33544556 112.58168228 518.99544556 112.91168228 519.67544556 113.25168228 C519.67544556 113.91168228 519.67544556 114.57168228 519.67544556 115.25168228 C520.33544556 115.25168228 520.99544556 115.25168228 521.67544556 115.25168228 C522.00544556 115.91168228 522.33544556 116.57168228 522.67544556 117.25168228 C523.66544556 117.58168228 524.65544556 117.91168228 525.67544556 118.25168228 C527.06216431 120.02902603 527.06216431 120.02902603 528.36294556 122.18918228 C528.79993774 122.89945572 529.23692993 123.60972916 529.68716431 124.34152603 C530.67544556 126.25168228 530.67544556 126.25168228 530.67544556 128.25168228 C531.66544556 128.58168228 532.65544556 128.91168228 533.67544556 129.25168228 C535.17544556 131.36105728 535.17544556 131.36105728 536.67544556 134.00168228 C537.17044556 134.86277603 537.66544556 135.72386978 538.17544556 136.61105728 C538.67044556 137.48246353 539.16544556 138.35386978 539.67544556 139.25168228 C540.21169556 140.11406509 540.74794556 140.97644791 541.30044556 141.86496353 C543.03235586 144.87120557 543.73953908 147.91751547 544.67544556 151.25168228 C545.16786743 152.13469009 545.66028931 153.01769791 546.16763306 153.92746353 C548.01100759 157.99148356 548.41510317 161.59668985 548.80044556 166.00168228 C549.10840371 171.28788026 549.10840371 171.28788026 550.67544556 176.25168228 C550.88912566 180.67324425 550.86123705 185.0989588 550.86074829 189.52511978 C550.86290978 191.71542913 550.88099449 193.90521378 550.90005493 196.09543228 C550.93067339 203.70172998 550.53367875 210.84009829 548.67544556 218.25168228 C548.29374935 220.29210767 547.91716831 222.33351264 547.55044556 224.37668228 C547.38286743 225.30738541 547.21528931 226.23808853 547.04263306 227.19699478 C546.92146118 227.87504166 546.80028931 228.55308853 546.67544556 229.25168228 C546.01544556 229.25168228 545.35544556 229.25168228 544.67544556 229.25168228 C544.42794556 229.80855728 544.18044556 230.36543228 543.92544556 230.93918228 C542.03405838 234.43824855 540.28535449 237.67032628 536.42544556 239.06418228 C535.84794556 239.12605728 535.27044556 239.18793228 534.67544556 239.25168228 C534.67544556 239.91168228 534.67544556 240.57168228 534.67544556 241.25168228 C519.67294937 249.62705956 500.79628618 247.49854468 484.23794556 247.37668228 C481.84927744 247.36663019 479.46060522 247.35750829 477.07192993 247.34933853 C471.27301089 247.3275069 465.47424788 247.29420674 459.67544556 247.25168228 C458.48401664 249.54774524 457.56072469 251.62490752 456.79653931 254.11105728 C455.53344645 257.64947768 453.83698065 260.39026341 451.73794556 263.50168228 C451.04829712 264.53808853 450.35864868 265.57449478 449.64810181 266.64230728 C447.67544556 269.25168228 447.67544556 269.25168228 444.67544556 271.25168228 C444.01544556 272.24168228 443.35544556 273.23168228 442.67544556 274.25168228 C442.01544556 273.92168228 441.35544556 273.59168228 440.67544556 273.25168228 C440.34544556 274.24168228 440.01544556 275.23168228 439.67544556 276.25168228 C430.06282784 282.59600998 419.89114537 283.35504675 408.67544556 282.25168228 C404.99460814 281.40151511 401.96393224 280.08920125 398.67544556 278.25168228 C397.27745728 277.49371353 397.27745728 277.49371353 395.85122681 276.72043228 C390.87000967 273.88593215 390.87000967 273.88593215 388.67544556 272.25168228 C388.67544556 271.59168228 388.67544556 270.93168228 388.67544556 270.25168228 C387.49314976 269.10316636 386.309825 267.95568654 385.12075806 266.81418228 C381.81773168 263.24334296 378.67544556 259.192507 378.67544556 254.25168228 C378.01544556 253.92168228 377.35544556 253.59168228 376.67544556 253.25168228 C376.01544556 252.26168228 375.35544556 251.27168228 374.67544556 250.25168228 C375.00544556 249.59168228 375.33544556 248.93168228 375.67544556 248.25168228 C304.72544556 248.25168228 233.77544556 248.25168228 160.67544556 248.25168228 C160.34544556 248.91168228 160.01544556 249.57168228 159.67544556 250.25168228 C158.68544556 250.25168228 157.69544556 250.25168228 156.67544556 250.25168228 C156.67544556 251.90168228 156.67544556 253.55168228 156.67544556 255.25168228 C156.01544556 255.58168228 155.35544556 255.91168228 154.67544556 256.25168228 C154.11857056 257.45824478 154.11857056 257.45824478 153.55044556 258.68918228 C151.16770033 263.73862684 147.46110949 268.18470574 143.67544556 272.25168228 C143.01544556 272.25168228 142.35544556 272.25168228 141.67544556 272.25168228 C141.67544556 272.91168228 141.67544556 273.57168228 141.67544556 274.25168228 C131.39185417 282.00652169 120.2182752 283.61850901 107.67544556 282.25168228 C102.82642914 281.07414336 98.25560375 279.83184047 94.67544556 276.25168228 C93.85044556 275.94230728 93.02544556 275.63293228 92.17544556 275.31418228 C89.67544556 274.25168228 89.67544556 274.25168228 87.67544556 271.25168228 C86.68544556 270.59168228 85.69544556 269.93168228 84.67544556 269.25168228 C83.61163924 267.95237686 82.59301603 266.61525859 81.61294556 265.25168228 C80.0390136 263.07300803 78.57981092 261.15604764 76.67544556 259.25168228 C77.00544556 258.26168228 77.33544556 257.27168228 77.67544556 256.25168228 C77.01544556 256.25168228 76.35544556 256.25168228 75.67544556 256.25168228 C75.24232056 255.13793228 74.80919556 254.02418228 74.36294556 252.87668228 C72.97633436 249.07655894 72.97633436 249.07655894 69.67544556 247.25168228 C67.19260592 247.08338479 64.82625142 247.03014127 62.34585571 247.07223892 C61.23070839 247.07902916 61.23070839 247.07902916 60.09303284 247.08595657 C58.47898492 247.09691365 56.86496295 247.11241766 55.25099564 247.13191795 C52.69537741 247.1620642 50.13998747 247.17888424 47.58422852 247.19197464 C40.31790996 247.23173959 33.05186659 247.29675763 25.78579712 247.36813736 C21.34089709 247.41088086 16.89609032 247.43896061 12.45103073 247.45843697 C10.75813569 247.46899775 9.06526651 247.48538805 7.37248611 247.50774193 C5.0028082 247.53898037 2.63367683 247.55171732 0.26382446 247.56052017 C-0.43349289 247.57444809 -1.13081024 247.58837601 -1.84925842 247.60272598 C-6.15617538 247.59455701 -8.92441443 246.94681277 -12.32455444 244.25168228 C-12.32455444 243.59168228 -12.32455444 242.93168228 -12.32455444 242.25168228 C-12.98455444 241.92168228 -13.64455444 241.59168228 -14.32455444 241.25168228 C-13.66455444 238.94168228 -13.00455444 236.63168228 -12.32455444 234.25168228 C-4.48817632 232.00898523 3.13285312 231.98370576 11.20925331 232.00785255 C13.64339785 232.01349885 16.07707535 232.00420441 18.51118469 231.99065018 C25.4247678 231.95372043 32.33818227 231.9350313 39.25186157 231.94626236 C43.4964814 231.9521096 47.74043157 231.93388664 51.98491478 231.90037346 C53.59762895 231.89242385 55.21041618 231.89369059 56.8231144 231.90439796 C59.07322087 231.91871092 61.32120847 231.90247862 63.57119751 231.87936783 C65.48905815 231.87842369 65.48905815 231.87842369 67.44566345 231.87746048 C70.82678598 231.53407919 70.82678598 231.53407919 73.01252747 228.92338943 C75.65453268 224.67864384 77.63215416 220.17152686 79.69888306 215.62668228 C81.98806883 211.71787495 84.0924791 209.95589951 87.67544556 207.25168228 C88.25294556 206.65355728 88.83044556 206.05543228 89.42544556 205.43918228 C90.67544556 204.25168228 90.67544556 204.25168228 92.67544556 204.25168228 C92.67544556 203.59168228 92.67544556 202.93168228 92.67544556 202.25168228 C95.97544556 201.26168228 99.27544556 200.27168228 102.67544556 199.25168228 C102.67544556 198.59168228 102.67544556 197.93168228 102.67544556 197.25168228 C109.35436316 194.07124533 116.12695249 195.55465686 123.17544556 196.93918228 C130.98905303 199.86928508 137.51358419 202.5644743 142.67544556 209.25168228 C143.66544556 209.58168228 144.65544556 209.91168228 145.67544556 210.25168228 C147.28091431 211.99386978 147.28091431 211.99386978 148.86294556 214.12668228 C149.39275024 214.82535416 149.92255493 215.52402603 150.46841431 216.24386978 C151.67544556 218.25168228 151.67544556 218.25168228 151.67544556 221.25168228 C152.66544556 221.58168228 153.65544556 221.91168228 154.67544556 222.25168228 C156.48511905 224.89658969 157.66016927 227.20585341 158.67544556 230.25168228 C163.18418942 231.37664218 167.61241985 231.4027118 172.22894287 231.40558243 C173.518495 231.41215581 173.518495 231.41215581 174.8340987 231.41886199 C177.71367101 231.43221275 180.59321275 231.43842028 183.47280884 231.44455338 C185.5376194 231.4524568 187.60242858 231.4607259 189.66723633 231.46933365 C196.44339689 231.49550931 203.21956353 231.51084925 209.99575806 231.52511978 C212.32758462 231.53047986 214.65941115 231.53585737 216.99123764 231.54125214 C226.68497495 231.56286752 236.37871061 231.58160768 246.0724659 231.59287453 C259.97584275 231.60914054 273.87894138 231.64239795 287.78221333 231.69927537 C297.55467939 231.73789691 307.32707076 231.75749752 317.09961116 231.76279509 C322.93984655 231.76645705 328.77978488 231.77856927 334.6199379 231.81089783 C340.10785897 231.84084415 345.59530107 231.8473385 351.08328629 231.83551407 C353.10097026 231.83529226 355.11867563 231.84368559 357.13628387 231.86116791 C359.88341364 231.88368311 362.62878007 231.8756479 365.37591553 231.85968399 C366.18086555 231.87356608 366.98581557 231.88744817 367.81515801 231.90175092 C370.28935566 231.9230501 370.28935566 231.9230501 373.67544556 231.25168228 C375.85849943 228.62159314 376.65147122 226.31477265 377.86294556 223.12668228 C381.54952617 214.37821638 388.18413736 205.68402472 396.67544556 201.25168228 C407.45072831 197.27806349 417.47182498 196.27931273 428.67544556 198.75168228 C429.35478149 198.89476822 430.03411743 199.03785416 430.73403931 199.18527603 C432.38270353 199.53358537 434.0293145 199.89159111 435.67544556 200.25168228 C435.67544556 200.91168228 435.67544556 201.57168228 435.67544556 202.25168228 C436.24778931 202.51078384 436.82013306 202.76988541 437.40982056 203.03683853 C446.51133767 207.91713478 454.71113642 217.76921419 458.67544556 227.25168228 C458.67544556 228.24168228 458.67544556 229.23168228 458.67544556 230.25168228 C459.62419556 230.39605728 460.57294556 230.54043228 461.55044556 230.68918228 C464.67544556 231.25168228 464.67544556 231.25168228 466.67544556 232.25168228 C468.23630224 232.35178758 469.80133883 232.39001096 471.36538696 232.39694595 C472.34045197 232.40332581 473.31551697 232.40970566 474.32012939 232.41627884 C475.37839935 232.41739166 476.43666931 232.41850449 477.52700806 232.41965103 C478.61500702 232.42297943 479.70300598 232.42630783 480.82397461 232.42973709 C483.13237077 232.43480874 485.44077429 232.43714534 487.74917603 232.43698502 C491.26508891 232.43916041 494.78068244 232.45728302 498.29653931 232.47629166 C500.54002782 232.47922782 502.78351782 232.48121112 505.02700806 232.48215103 C506.07313263 232.48933655 507.1192572 232.49652206 508.19708252 232.50392532 C519.26589012 232.51633065 519.26589012 232.51633065 528.55044556 227.12668228 C531.50798144 224.25168228 531.50798144 224.25168228 533.67544556 224.25168228 C536.35025271 205.06380951 540.46653109 173.89932435 530.67544556 156.25168228 C530.29325789 154.59553571 529.96149454 152.92711204 529.67544556 151.25168228 C529.48982056 150.32355728 529.30419556 149.39543228 529.11294556 148.43918228 C528.96857056 147.71730728 528.82419556 146.99543228 528.67544556 146.25168228 C528.01544556 146.25168228 527.35544556 146.25168228 526.67544556 146.25168228 C526.52075806 145.32355728 526.52075806 145.32355728 526.36294556 144.37668228 C525.80019183 141.88641744 525.80019183 141.88641744 522.67544556 140.25168228 C522.31382527 138.92574124 521.97816517 137.59229771 521.67544556 136.25168228 C521.01544556 135.92168228 520.35544556 135.59168228 519.67544556 135.25168228 C519.67544556 134.59168228 519.67544556 133.93168228 519.67544556 133.25168228 C519.01544556 133.25168228 518.35544556 133.25168228 517.67544556 133.25168228 C512.9080037 128.9493567 512.9080037 128.9493567 511.67544556 125.25168228 C510.26861899 124.07932681 508.85755448 122.91153466 507.42153931 121.77511978 C504.77283886 119.46417308 502.60975703 116.77463193 500.33950806 114.09933853 C498.61838654 112.08442188 498.61838654 112.08442188 495.98794556 110.12668228 C493.19003918 107.85810955 491.63343967 105.25393992 489.67544556 102.25168228 C488.68544556 101.59168228 487.69544556 100.93168228 486.67544556 100.25168228 C485.65678326 98.59635606 484.65733743 96.9290809 483.67544556 95.25168228 C483.11857056 94.69480728 482.56169556 94.13793228 481.98794556 93.56418228 C481.55482056 93.13105728 481.12169556 92.69793228 480.67544556 92.25168228 C480.67544556 91.59168228 480.67544556 90.93168228 480.67544556 90.25168228 C479.89169556 90.16918228 479.10794556 90.08668228 478.30044556 90.00168228 C475.67544556 89.25168228 475.67544556 89.25168228 474.48794556 87.25168228 C474.08575806 86.26168228 474.08575806 86.26168228 473.67544556 85.25168228 C473.01544556 84.92168228 472.35544556 84.59168228 471.67544556 84.25168228 C471.67544556 83.59168228 471.67544556 82.93168228 471.67544556 82.25168228 C471.01544556 82.25168228 470.35544556 82.25168228 469.67544556 82.25168228 C469.30419556 81.32355728 469.30419556 81.32355728 468.92544556 80.37668228 C467.44773793 77.86457932 466.23589379 77.49060885 463.67544556 76.25168228 C463.34544556 75.26168228 463.01544556 74.27168228 462.67544556 73.25168228 C462.15982056 72.73605728 461.64419556 72.22043228 461.11294556 71.68918228 C460.63857056 71.21480728 460.16419556 70.74043228 459.67544556 70.25168228 C459.67544556 69.59168228 459.67544556 68.93168228 459.67544556 68.25168228 C459.01544556 68.25168228 458.35544556 68.25168228 457.67544556 68.25168228 C457.67544556 67.59168228 457.67544556 66.93168228 457.67544556 66.25168228 C457.11857056 66.02480728 456.56169556 65.79793228 455.98794556 65.56418228 C451.97908282 63.28888181 449.22824143 59.93894201 446.36294556 56.37668228 C444.29774555 53.81820201 442.01401508 51.79120042 439.48794556 49.68918228 C436.4730308 47.13416978 434.63596673 45.21383211 433.67544556 41.25168228 C432.68544556 41.25168228 431.69544556 41.25168228 430.67544556 41.25168228 C430.67544556 40.59168228 430.67544556 39.93168228 430.67544556 39.25168228 C429.84013306 38.94230728 429.84013306 38.94230728 428.98794556 38.62668228 C426.67544556 37.25168228 426.67544556 37.25168228 424.61294556 34.56418228 C419.24423228 27.80358037 410.76157886 23.79581641 402.67544556 21.25168228 C401.98064087 20.99773697 401.28583618 20.74379166 400.56997681 20.48215103 C389.38905291 16.46493413 378.3836099 15.9603908 366.61161804 15.99339676 C365.00042612 15.99053788 363.38923557 15.98679758 361.7780475 15.98225826 C357.37538588 15.97232644 352.9728044 15.97463751 348.5701369 15.97898519 C343.81287196 15.98147021 339.05562762 15.97238218 334.29837036 15.96460342 C326.06339725 15.95258122 317.82844347 15.94745172 309.59346199 15.94672203 C297.6828147 15.94539474 285.77221425 15.93026967 273.86158352 15.91122686 C254.52993069 15.88041467 235.19827668 15.85623313 215.86660767 15.8383522 C214.13248858 15.83674318 214.13248858 15.83674318 212.36333679 15.83510166 C199.45374291 15.82327146 186.54414856 15.81306598 173.634552 15.8046608 C168.94692992 15.80158655 164.25930785 15.79849783 159.57168579 15.79538345 C158.41489608 15.79461811 157.25810637 15.79385278 156.06626243 15.79306424 C136.79690365 15.77999556 117.52757896 15.75537803 98.25824541 15.72164005 C86.37217733 15.70132777 74.48618209 15.69106371 62.60009652 15.69362926 C54.46495742 15.69466213 46.32987606 15.68506296 38.19475711 15.66699023 C33.49755183 15.65691958 28.80047425 15.65184469 24.10326195 15.65975761 C19.80733265 15.66690885 15.5116527 15.66041663 11.21575528 15.64287221 C9.65815401 15.63897337 8.10053018 15.64019391 6.5429386 15.64692909 C4.43234421 15.65533498 2.32260972 15.64545082 0.2120676 15.63085651 C-0.96214038 15.63004206 -2.13634837 15.6292276 -3.34613842 15.62838846 C-6.60422417 15.21631002 -8.02511908 14.56533575 -10.32455444 12.25168228 C-10.32455444 11.59168228 -10.32455444 10.93168228 -10.32455444 10.25168228 C-10.98455444 10.25168228 -11.64455444 10.25168228 -12.32455444 10.25168228 C-12.65455444 9.26168228 -12.98455444 8.27168228 -13.32455444 7.25168228 C-6.07454147 0.00166931 -6.07454147 0.00166931 0 0 Z " fill="#9DCEC0" transform="translate(447.3245544433594,496.74831771850586)"/>
<path d="M0 0 C1.05021725 -0.00311998 2.1004345 -0.00623996 3.18247652 -0.00945449 C6.70695361 -0.01744151 10.23125888 -0.011108 13.7557373 -0.00482178 C16.28035076 -0.00753132 18.80496342 -0.01109205 21.32957458 -0.01544189 C27.4781357 -0.02362388 33.62663303 -0.02241383 39.775195 -0.01661661 C44.77217692 -0.01210019 49.76914516 -0.01148714 54.76612854 -0.01366425 C55.8328487 -0.01412394 55.8328487 -0.01412394 56.92111877 -0.01459293 C58.36579144 -0.01523238 59.81046412 -0.01588081 61.25513679 -0.01653811 C74.80242045 -0.02224145 88.34967704 -0.01568346 101.89695626 -0.00493738 C113.52160907 0.00399814 125.14622194 0.0024461 136.77087402 -0.0067749 C150.26962234 -0.01747747 163.76834694 -0.02169213 177.2670989 -0.01555037 C178.70646254 -0.01491328 180.14582618 -0.01428453 181.58518982 -0.01366425 C182.64748658 -0.01320142 182.64748658 -0.01320142 183.73124388 -0.01272924 C188.72232939 -0.01100226 193.71339985 -0.01391747 198.70448303 -0.01862335 C205.42182447 -0.02481761 212.13907875 -0.02040866 218.8564167 -0.00883484 C221.32475725 -0.00618569 223.79310414 -0.00695767 226.26144218 -0.01136017 C229.62482072 -0.01680689 232.98795545 -0.00999187 236.35131836 0 C237.82431672 -0.00669217 237.82431672 -0.00669217 239.32707262 -0.01351953 C247.84118696 0.03570462 247.84118696 0.03570462 251.67565918 2.25396729 C253.06116115 5.02497122 252.86340588 7.18743788 252.67565918 10.25396729 C250.67565918 13.25396729 250.67565918 13.25396729 247.67565918 14.25396729 C246.21642399 14.34612892 244.75334141 14.38305812 243.29120064 14.38539505 C242.38959493 14.3892362 241.48798922 14.39307734 240.55906212 14.39703488 C239.56734659 14.3961684 238.57563105 14.39530192 237.55386353 14.39440918 C235.97497559 14.39886586 235.97497559 14.39886586 234.36419094 14.40341258 C230.819731 14.41211839 227.27530476 14.41360941 223.73083496 14.4151001 C221.19666471 14.41972689 218.66249515 14.42475136 216.12832642 14.43014526 C209.23169381 14.44328345 202.33507235 14.44975334 195.43842936 14.45415592 C191.13320575 14.45691784 186.82798439 14.46115508 182.5227623 14.4656601 C170.60559543 14.47785235 158.68843037 14.48815212 146.7712574 14.49153519 C146.00847687 14.49175475 145.24569634 14.49197432 144.45980125 14.49220054 C143.69518626 14.49241882 142.93057128 14.49263709 142.14278615 14.49286199 C140.59335971 14.49330545 139.04393327 14.49375202 137.49450684 14.49420166 C136.72593628 14.49442309 135.95736573 14.49464452 135.16550516 14.49487266 C122.70805021 14.49882185 110.25065372 14.51627974 97.79322137 14.53956118 C85.0070096 14.56326447 72.22082718 14.57573655 59.43459308 14.5769031 C52.2540836 14.57782038 45.07365029 14.583586 37.89316177 14.60172272 C31.14135586 14.61871648 24.3897194 14.62038402 17.63788986 14.61158371 C15.15664534 14.6108106 12.67539318 14.61519183 10.19416809 14.62504196 C6.81307819 14.63767973 3.4325078 14.63192894 0.05142212 14.62145996 C-0.93583197 14.62951637 -1.92308607 14.63757277 -2.94025695 14.64587331 C-11.49553891 14.58370231 -11.49553891 14.58370231 -15.32434082 11.25396729 C-16.51539459 7.68080599 -16.39476402 5.84753088 -15.32434082 2.25396729 C-10.66765919 -0.5938686 -5.2700656 -0.0239431 0 0 Z " fill="#9ECFC1" transform="translate(299.3243408203125,605.7460327148438)"/>
<path d="M0 0 C1.8125 2.625 1.8125 2.625 3 5 C3.66 5.66 4.32 6.32 5 7 C8.64534722 14.933991 9.69715175 24.96819662 6.8125 33.3125 C2.90051677 42.04201813 -2.43374844 46.7945041 -11.3125 50.3125 C-18.23541478 51.60321292 -24.49350342 51.86672374 -31 49 C-32.0725 48.690625 -33.145 48.38125 -34.25 48.0625 C-35.61125 47.5365625 -35.61125 47.5365625 -37 47 C-37.495 45.515 -37.495 45.515 -38 44 C-38.7425 43.979375 -39.485 43.95875 -40.25 43.9375 C-43.66045074 42.77484634 -44.4786073 41.11348723 -46.10546875 37.984375 C-46.40066406 37.32953125 -46.69585938 36.6746875 -47 36 C-47.36480469 35.28972656 -47.72960937 34.57945312 -48.10546875 33.84765625 C-49.38440053 29.77629699 -49.21196487 25.92536507 -49.125 21.6875 C-49.11597656 20.85154297 -49.10695313 20.01558594 -49.09765625 19.15429688 C-49.07420989 17.10274031 -49.03834266 15.05133223 -49 13 C-48.01 13 -47.02 13 -46 13 C-46.33 11.68 -46.66 10.36 -47 9 C-46.01 9 -45.02 9 -44 9 C-43.938125 8.46375 -43.87625 7.9275 -43.8125 7.375 C-42.18216508 2.60940563 -38.82626577 -0.71036467 -34.625 -3.3125 C-23.1487741 -8.65488102 -10.29897608 -6.80121062 0 0 Z " fill="#0F0D10" transform="translate(583,715)"/>
<path d="M0 0 C6.59053156 4.77159468 6.59053156 4.77159468 8 9 C8.66 9.66 9.32 10.32 10 11 C11.33162376 15.52410636 11.21927435 20.19702013 11.25 24.875 C11.270625 25.65230469 11.29125 26.42960938 11.3125 27.23046875 C11.35403479 33.40876887 10.29504331 37.94591893 6.5 42.99609375 C2.33333333 47 2.33333333 47 -1 47 C-1 47.99 -1 48.98 -1 50 C-11.13632933 53.3521719 -20.24366953 55.01567734 -30.25 50.5 C-31.8449042 49.68903176 -33.43301937 48.86369011 -35 48 C-35 47.34 -35 46.68 -35 46 C-35.66 46 -36.32 46 -37 46 C-37 45.34 -37 44.68 -37 44 C-37.66 44 -38.32 44 -39 44 C-44.47824806 35.99488475 -45.98370315 28.47379988 -44.37890625 18.8984375 C-43.69098534 15.24064908 -42.87479153 11.61778191 -42 8 C-41.34 8 -40.68 8 -40 8 C-39.67 7.01 -39.34 6.02 -39 5 C-37.44140625 3.61328125 -37.44140625 3.61328125 -35.5625 2.3125 C-34.63630859 1.65701172 -34.63630859 1.65701172 -33.69140625 0.98828125 C-32 0 -32 0 -30 0 C-30 -0.66 -30 -1.32 -30 -2 C-20.30824282 -5.69209797 -8.8408533 -5.72467135 0 0 Z " fill="#0F0E10" transform="translate(881,713)"/>
<path d="M0 0 C1.92113113 0.00433548 1.92113113 0.00433548 3.881073 0.00875854 C7.36855627 0.01749016 10.85562679 0.04550915 14.3429575 0.07827687 C17.26068401 0.10393943 20.17843275 0.12010545 23.09622455 0.13634199 C29.97803569 0.17481709 36.85959713 0.22905202 43.74121094 0.29345703 C50.83322309 0.35957431 57.92505258 0.39996791 65.01731038 0.42765528 C71.11956711 0.45232423 77.22158929 0.49237016 83.32367015 0.54485792 C86.96280501 0.5760392 90.60174777 0.60154261 94.24100494 0.61244392 C98.29389479 0.62542764 102.34581384 0.67052699 106.3984375 0.71875 C107.6006192 0.71843277 108.8028009 0.71811554 110.04141235 0.7177887 C118.11873616 0.8512361 118.11873616 0.8512361 122.18133545 3.13059998 C123.94042969 5.31225586 123.94042969 5.31225586 124.62792969 8.81225586 C123.94042969 12.31225586 123.94042969 12.31225586 121.71456909 14.50262451 C116.64563292 17.59034191 110.59484564 16.83274888 104.86669922 16.76635742 C103.54909103 16.76694153 102.23148285 16.76752563 100.87394714 16.76812744 C97.27295754 16.76927227 93.67250393 16.74580125 90.07163858 16.71783161 C86.30404301 16.69277892 82.53643433 16.69047292 78.76876831 16.68572998 C71.63961576 16.67331151 64.51070939 16.64050537 57.38166511 16.60033202 C49.26321466 16.55557902 41.14475227 16.53361843 33.02620912 16.51355028 C16.33080534 16.47177158 -0.36435104 16.40144172 -17.05957031 16.31225586 C-17.05957031 15.65225586 -17.05957031 14.99225586 -17.05957031 14.31225586 C-17.80207031 14.06475586 -18.54457031 13.81725586 -19.30957031 13.56225586 C-22.26081093 12.22078285 -23.90772005 10.7032006 -26.05957031 8.31225586 C-23.25904669 3.80706568 -20.63518742 2.4145462 -15.77610016 0.90685844 C-10.55518545 -0.23591177 -5.32094648 -0.06172745 0 0 Z " fill="#9ECFC1" transform="translate(408.0595703125,654.687744140625)"/>
<path d="M0 0 C1.17625443 -0.00860046 2.35250885 -0.01720093 3.56440735 -0.02606201 C5.49470795 -0.03245193 5.49470795 -0.03245193 7.46400452 -0.03897095 C8.83577683 -0.04687628 10.20754709 -0.0551455 11.57931519 -0.06375122 C16.07870005 -0.08991067 20.57809397 -0.10526783 25.07752991 -0.11953735 C26.62768115 -0.1248986 28.17783234 -0.13027611 29.72798347 -0.13566971 C36.17476439 -0.1572851 42.62154285 -0.17602312 49.06835079 -0.1872921 C58.30394334 -0.2035437 67.53911608 -0.23676567 76.77455038 -0.29369295 C83.27147077 -0.33237502 89.76827876 -0.35192241 96.2653113 -0.35721266 C100.14502113 -0.36086713 104.02428258 -0.37289857 107.90386772 -0.4053154 C111.55249257 -0.43536797 115.20039701 -0.44171858 118.84911919 -0.42993164 C120.8246268 -0.42960542 122.80008978 -0.45408715 124.7754364 -0.47930908 C134.43317113 -0.41117284 134.43317113 -0.41117284 137.58023071 2.45599365 C139.23768616 5.15390015 139.23768616 5.15390015 139.11268616 8.90390015 C138.23768616 12.15390015 138.23768616 12.15390015 137.23768616 13.15390015 C135.3842073 13.25258306 133.52692606 13.28022178 131.67082214 13.28088379 C130.46214478 13.28370361 129.25346741 13.28652344 128.00816345 13.28942871 C126.65644822 13.28748409 125.30473313 13.28543591 123.95301819 13.28329468 C122.53903661 13.28464871 121.12505538 13.28642865 119.71107483 13.28860474 C115.85980703 13.29317966 112.0085659 13.29138905 108.15729761 13.28822565 C104.13346438 13.28570136 100.10963349 13.28803987 96.08580017 13.28961182 C89.32506397 13.29143373 82.56433867 13.28902708 75.80360413 13.28427124 C67.9823294 13.27883297 60.16108076 13.28058802 52.33980668 13.28609765 C45.63321113 13.2906334 38.92662344 13.29127692 32.22002685 13.28865898 C28.21085487 13.28709819 24.20169515 13.28689694 20.19252396 13.29019547 C16.42184477 13.29308072 12.65119923 13.29108638 8.88052368 13.28530121 C7.49498424 13.28397695 6.10944198 13.28436209 4.72390366 13.28656387 C2.83544261 13.28928851 0.94697538 13.28526907 -0.94148254 13.28088379 C-1.99932386 13.28050676 -3.05716518 13.28012974 -4.1470623 13.27974129 C-6.76231384 13.15390015 -6.76231384 13.15390015 -9.76231384 12.15390015 C-9.76231384 11.49390015 -9.76231384 10.83390015 -9.76231384 10.15390015 C-10.42231384 10.15390015 -11.08231384 10.15390015 -11.76231384 10.15390015 C-12.01231384 4.52890015 -12.01231384 4.52890015 -9.76231384 1.15390015 C-6.57601611 -0.06995733 -3.38297684 0.01844107 0 0 Z " fill="#9ECFC1" transform="translate(363.76231384277344,556.8460998535156)"/>
<path d="M0 0 C0.70189453 0.01353516 1.40378906 0.02707031 2.12695312 0.04101562 C3.85579829 0.07629818 5.58424765 0.13010417 7.3125 0.1875 C7.3125 0.8475 7.3125 1.5075 7.3125 2.1875 C8.6325 2.8475 9.9525 3.5075 11.3125 4.1875 C10.22710938 4.1153125 9.14171875 4.043125 8.0234375 3.96875 C6.57813156 3.87489896 5.13281868 3.78115463 3.6875 3.6875 C2.61822266 3.61595703 2.61822266 3.61595703 1.52734375 3.54296875 C-2.55257561 3.28095558 -6.59641219 3.13587744 -10.6875 3.1875 C-7.97885416 -0.76650025 -4.33266512 -0.15777212 0 0 Z " fill="#4B5D59" transform="translate(864.6875,691.8125)"/>
<path d="M0 0 C0.99 0 1.98 0 3 0 C3.33 3.96 3.66 7.92 4 12 C3.01 11.67 2.02 11.34 1 11 C0.67 7.37 0.34 3.74 0 0 Z " fill="#495A56" transform="translate(995,660)"/>
</svg>
