<?xml version="1.0" encoding="UTF-8"?>
<!-- Generator: visioncortex VTracer 0.6.2 -->
<svg version="1.1" xmlns="http://www.w3.org/2000/svg" width="1280" height="662">
<path d="M0 0 C0.92105455 -0.00205263 1.8421091 -0.00410527 2.7910744 -0.0062201 C5.91238736 -0.0119254 9.03365669 -0.01042852 12.15497398 -0.00901413 C14.40156333 -0.01159578 16.64815222 -0.01460837 18.89474046 -0.01801753 C25.0959951 -0.02611494 31.29723819 -0.02787863 37.49849749 -0.028615 C43.49140363 -0.03027157 49.48430439 -0.03658657 55.47720725 -0.04269341 C71.54340198 -0.05877363 87.60959578 -0.06465989 103.67579712 -0.06944216 C111.27754068 -0.07177703 118.87928348 -0.07537966 126.48102645 -0.07913754 C152.50434837 -0.09197754 178.52766986 -0.10269421 204.55099487 -0.10614014 C206.18552833 -0.10636177 207.82006178 -0.10658355 209.45459523 -0.10680549 C211.09309321 -0.10702613 212.73159119 -0.10724661 214.37008917 -0.10746694 C217.65721997 -0.10790949 220.94435076 -0.1083566 224.23148155 -0.10880661 C225.45401311 -0.1089707 225.45401311 -0.1089707 226.70124227 -0.1091381 C253.10654213 -0.11276576 279.51181448 -0.1286725 305.91710381 -0.15199697 C333.83500202 -0.17661242 361.75288452 -0.19031387 389.67079389 -0.19150805 C392.73792227 -0.19167951 395.80505065 -0.19189493 398.87217903 -0.19214249 C399.62739058 -0.19219826 400.38260212 -0.19225402 401.16069886 -0.19231148 C413.29920267 -0.19346075 425.43767821 -0.20447262 437.57617248 -0.21902954 C449.78871689 -0.2334214 462.0012252 -0.23661647 474.21377577 -0.22858956 C480.82626882 -0.22453521 487.43868724 -0.22559673 494.05117416 -0.23964691 C500.11150517 -0.25240575 506.17167039 -0.2511707 512.23200123 -0.2390562 C514.41794675 -0.2371026 516.6039041 -0.24016195 518.78983302 -0.24890056 C530.99239866 -0.29457133 542.34887392 0.29724035 554.25589561 3.13142776 C554.25589561 3.79142776 554.25589561 4.45142776 554.25589561 5.13142776 C554.9816378 5.25904495 555.70737999 5.38666214 556.45511436 5.51814651 C563.16735703 6.98791234 569.44435915 10.11159756 575.51370811 13.26814651 C577.37498539 14.23531856 577.37498539 14.23531856 579.94339561 15.06892776 C583.04001647 16.49169951 584.85283367 18.72836582 587.25589561 21.13142776 C588.46541126 21.85293927 589.69581678 22.54043409 590.94339561 23.19392776 C594.48587903 25.26594637 594.58549222 25.73324071 596.25589561 29.13142776 C597.95583082 30.82050527 597.95583082 30.82050527 599.94339561 32.38142776 C603.59164477 35.44701644 606.62071961 38.73263023 609.61527061 42.43220901 C611.37300955 44.25272434 613.01322317 45.01476378 615.25589561 46.13142776 C616.50589561 48.75642776 616.50589561 48.75642776 617.25589561 51.13142776 C618.24589561 51.13142776 619.23589561 51.13142776 620.25589561 51.13142776 C619.92589561 52.12142776 619.59589561 53.11142776 619.25589561 54.13142776 C619.81277061 54.37892776 620.36964561 54.62642776 620.94339561 54.88142776 C626.11670159 57.67780937 629.63320286 61.59499945 633.25589561 66.13142776 C636.64408329 70.35542832 639.46734583 73.45547348 644.25589561 76.13142776 C644.25589561 76.79142776 644.25589561 77.45142776 644.25589561 78.13142776 C644.91589561 78.46142776 645.57589561 78.79142776 646.25589561 79.13142776 C646.73027061 79.77080276 647.20464561 80.41017776 647.69339561 81.06892776 C649.25994305 83.37120328 649.25994305 83.37120328 652.25589561 85.13142776 C653.19140361 86.3043112 654.08230675 87.51342159 654.93948936 88.74470901 C658.3281015 93.37828826 662.21720833 97.31730245 666.31839561 101.31892776 C667.01255577 102.00406448 667.70671593 102.6892012 668.42191124 103.39509964 C669.76307943 104.71843654 671.10648309 106.03951282 672.45242882 107.35799026 C673.99824412 108.8780664 675.52724618 110.41520774 677.05277061 111.95564651 C678.79597524 113.67721562 680.52360122 115.24323862 682.44339561 116.75642776 C685.25589561 119.13142776 685.25589561 119.13142776 687.25589561 122.13142776 C688.24589561 122.46142776 689.23589561 122.79142776 690.25589561 123.13142776 C691.44339561 125.69392776 691.44339561 125.69392776 692.25589561 128.13142776 C692.91589561 128.13142776 693.57589561 128.13142776 694.25589561 128.13142776 C695.54020424 129.60838268 696.8217027 131.08948914 698.03714561 132.62361526 C699.32374232 134.26955872 699.32374232 134.26955872 701.25589561 136.13142776 C701.91589561 136.79142776 702.57589561 137.45142776 703.25589561 138.13142776 C703.91589561 138.46142776 704.57589561 138.79142776 705.25589561 139.13142776 C705.25589561 139.79142776 705.25589561 140.45142776 705.25589561 141.13142776 C705.91589561 141.46142776 706.57589561 141.79142776 707.25589561 142.13142776 C709.66620324 144.37550728 711.76907884 146.75110915 713.81839561 149.31892776 C716.01261101 152.33355645 716.01261101 152.33355645 719.25589561 153.13142776 C719.62799982 154.45446493 719.96219735 155.78880711 720.25589561 157.13142776 C720.91589561 157.46142776 721.57589561 157.79142776 722.25589561 158.13142776 C722.25589561 158.79142776 722.25589561 159.45142776 722.25589561 160.13142776 C722.91589561 160.13142776 723.57589561 160.13142776 724.25589561 160.13142776 C726.06986133 162.21914287 727.7667214 164.31223024 729.44339561 166.50642776 C730.17888634 167.45739334 730.17888634 167.45739334 730.92923546 168.42757034 C741.68613015 182.42213137 741.68613015 182.42213137 743.25589561 187.13142776 C743.91589561 187.79142776 744.57589561 188.45142776 745.25589561 189.13142776 C746.7201347 191.90583836 747.90031508 194.80961167 749.13089561 197.69392776 C749.46991905 198.44867386 749.80894249 199.20341995 750.15823936 199.98103714 C751.30583748 202.6667658 752.29963351 205.37154598 753.25589561 208.13142776 C753.63012657 209.20449173 754.00435753 210.27755569 754.38992882 211.38313675 C758.66698812 226.12665824 757.81878536 241.5664087 757.70541954 256.77449417 C757.68933201 259.84435432 757.69939023 262.91390706 757.70953846 265.98377514 C757.71653192 268.97205617 757.7086678 271.96015769 757.69628143 274.94841576 C757.69181509 276.36080675 757.69138718 277.77321731 757.69534683 279.18560982 C757.72193469 296.98162998 752.49488804 307.45806609 740.25589561 320.13142776 C733.36494144 326.50556038 725.21643647 328.95717888 716.25589561 331.13142776 C716.25589561 331.46142776 716.25589561 331.79142776 716.25589561 332.13142776 C688.86589561 332.13142776 661.47589561 332.13142776 633.25589561 332.13142776 C631.93589561 336.42142776 630.61589561 340.71142776 629.25589561 345.13142776 C623.10174492 357.0302108 614.25278446 368.48968175 601.25589561 373.13142776 C599.01030131 374.15140466 596.77223764 375.1863034 594.53714561 376.22908401 C584.50919457 380.19561944 572.50489721 379.73243489 562.25589561 377.13142776 C561.43734093 377.00896683 560.61878624 376.88650589 559.77542686 376.76033401 C549.51931745 375.21794237 542.2090537 369.34624249 534.38480186 362.86580276 C532.17080255 361.00574175 532.17080255 361.00574175 529.25589561 359.13142776 C528.5565203 357.81495658 527.88860428 356.48120625 527.25589561 355.13142776 C526.59589561 354.47142776 525.93589561 353.81142776 525.25589561 353.13142776 C524.92589561 352.14142776 524.59589561 351.15142776 524.25589561 350.13142776 C523.79183311 349.73181839 523.32777061 349.33220901 522.84964561 348.92049026 C520.03254208 345.75815345 519.30506736 341.41258519 518.15042686 337.40486526 C517.60284655 335.61912564 516.93668049 333.87075009 516.25589561 332.13142776 C513.39995995 331.17944921 511.64295831 331.0061752 508.68186951 331.00558662 C507.73788005 331.00297888 506.79389058 331.00037113 505.82129538 330.99768436 C504.26254661 331.00103044 504.26254661 331.00103044 502.67230797 331.00444412 C501.01847369 331.00210414 501.01847369 331.00210414 499.33122861 330.99971688 C495.61681387 330.99571139 491.90243961 330.99889497 488.18802452 331.00203323 C485.53203269 331.00067885 482.8760437 330.99893492 480.22005272 330.99672318 C473.73833505 330.99226774 467.25662895 330.99324172 460.77491082 330.99613582 C455.49770125 330.99839423 450.22049491 330.99870045 444.94328499 330.997612 C444.19208102 330.99745877 443.44087705 330.99730553 442.66690933 330.99714766 C441.14061329 330.99682792 439.61431724 330.9965037 438.0880212 330.99617507 C423.75625749 330.99332004 409.42450015 330.99660582 395.09273748 331.00197543 C382.8329927 331.00642711 370.57325741 331.00568115 358.3135128 331.00105667 C344.0609202 330.99568294 329.80833323 330.99361196 315.55573976 330.99666893 C314.02955651 330.99698745 312.50337327 330.99730182 310.97719002 330.997612 C310.22642783 330.99776628 309.47566565 330.99792055 308.70215309 330.9980795 C303.44910666 330.99893752 298.19606383 330.99749695 292.94301796 330.99513245 C286.51418477 330.99230236 280.08536377 330.99313872 273.65653194 330.99841319 C270.38512122 331.00101001 267.11373444 331.00157069 263.8423233 330.99876404 C248.94800615 330.98717526 234.12591418 331.2541088 219.25589561 332.13142776 C219.07727989 332.8831929 218.89866417 333.63495804 218.71463585 334.40950394 C215.15107978 349.07433821 206.33964953 361.11952702 194.25589561 370.13142776 C179.05494646 379.312001 161.79088112 380.86846146 144.63089561 377.06892776 C133.51102361 373.64869967 124.43752981 366.14731984 116.25589561 358.13142776 C115.5275753 357.4495137 114.79925499 356.76759964 114.04886436 356.06502151 C111.7982109 353.63784621 111.22872122 351.2583672 110.25589561 348.13142776 C109.59589561 347.80142776 108.93589561 347.47142776 108.25589561 347.13142776 C107.25589561 346.13142776 107.25589561 346.13142776 107.19339561 343.56892776 C107.21402061 342.76455276 107.23464561 341.96017776 107.25589561 341.13142776 C106.59589561 341.13142776 105.93589561 341.13142776 105.25589561 341.13142776 C105.25589561 339.15142776 105.25589561 337.17142776 105.25589561 335.13142776 C104.59589561 335.13142776 103.93589561 335.13142776 103.25589561 335.13142776 C103.25589561 333.81142776 103.25589561 332.49142776 103.25589561 331.13142776 C102.69120567 331.13695852 102.12651573 331.14248928 101.54471397 331.14818764 C87.78080112 331.2809098 74.01700094 331.37970289 60.25258446 331.4423008 C53.59602279 331.47359252 46.94004637 331.51602715 40.28372765 331.58406448 C33.8581444 331.64933117 27.43300549 331.68515017 21.00711632 331.70069122 C18.55750091 331.71176416 16.10790939 331.73338734 13.65848351 331.76580811 C10.22297479 331.80946584 6.78929405 331.81535758 3.35355186 331.81258011 C2.3443821 331.83415176 1.33521233 331.85572342 0.29546165 331.87794876 C-5.90018268 331.8238712 -9.47012153 330.65254489 -14.28660011 326.71294975 C-15.74410439 325.13142776 -15.74410439 325.13142776 -16.74410439 322.13142776 C-16.36399842 319.53403701 -15.91914664 317.48151227 -14.74410439 315.13142776 C-14.08410439 315.13142776 -13.42410439 315.13142776 -12.74410439 315.13142776 C-12.74410439 314.47142776 -12.74410439 313.81142776 -12.74410439 313.13142776 C-8.93615505 310.62115906 -5.06261682 310.86291987 -0.6708622 310.90437698 C0.13926826 310.90408493 0.94939873 310.90379288 1.7840786 310.90349197 C4.45708556 310.90488333 7.12981245 310.92043539 9.80277061 310.93611526 C11.65793264 310.93984608 13.51309664 310.94269273 15.36826134 310.9446907 C20.24762997 310.95232173 25.12687926 310.9719657 30.00620079 310.99409866 C34.98655139 311.0145685 39.96692131 311.02369486 44.94730186 311.03377151 C54.7168855 311.05521206 64.48638063 311.08934164 74.25589561 311.13142776 C74.25589561 310.47142776 74.25589561 309.81142776 74.25589561 309.13142776 C76.89589561 309.79142776 79.53589561 310.45142776 82.25589561 311.13142776 C82.25589561 310.47142776 82.25589561 309.81142776 82.25589561 309.13142776 C83.24589561 309.46142776 84.23589561 309.79142776 85.25589561 310.13142776 C86.66254488 310.276349 88.07400891 310.37771708 89.48636436 310.44783401 C90.28880577 310.48972855 91.09124718 310.53162308 91.91800499 310.57478714 C93.16807335 310.63376175 93.16807335 310.63376175 94.44339561 310.69392776 C95.28837608 310.73711136 96.13335655 310.78029495 97.00394249 310.82478714 C99.08773995 310.93074294 101.17179665 311.03157797 103.25589561 311.13142776 C103.44152061 309.93517776 103.62714561 308.73892776 103.81839561 307.50642776 C106.38086744 296.20663881 112.58471262 285.79597648 121.25589561 278.13142776 C121.91589561 278.13142776 122.57589561 278.13142776 123.25589561 278.13142776 C123.25589561 277.47142776 123.25589561 276.81142776 123.25589561 276.13142776 C135.01981117 267.20404512 147.18359156 262.73919579 161.88089561 262.88142776 C162.68784874 262.87369339 163.49480186 262.86595901 164.32620811 262.85799026 C169.33041306 262.87423768 173.55054421 263.37772724 178.25589561 265.13142776 C178.58589561 265.79142776 178.91589561 266.45142776 179.25589561 267.13142776 C180.91750167 267.48913462 182.58533413 267.81819749 184.25589561 268.13142776 C198.25079189 273.60379105 208.92991019 285.80879371 215.25589561 299.13142776 C216.69900889 302.43060674 218.00520475 305.75590726 219.25589561 309.13142776 C219.58589561 309.79142776 219.91589561 310.45142776 220.25589561 311.13142776 C239.81842562 310.98955815 259.38092283 310.84346249 278.94339561 310.69392776 C279.66541869 310.68841353 280.38744176 310.68289929 281.13134432 310.67721796 C318.65306593 310.39041801 356.17393873 310.08207397 393.69339561 309.56892776 C394.50543324 309.55782597 395.31747086 309.54672417 396.15411568 309.53528595 C405.52146562 309.40670347 414.88873004 309.27286562 424.25589561 309.13142776 C424.25589561 309.79142776 424.25589561 310.45142776 424.25589561 311.13142776 C425.56443253 311.11263565 425.56443253 311.11263565 426.89940453 311.0934639 C435.20809048 310.97438408 443.51679397 310.85662697 451.82551861 310.74027634 C456.09488317 310.68044606 460.36423985 310.62014262 464.63358116 310.55867386 C500.95185554 310.0364126 500.95185554 310.0364126 516.25589561 310.13142776 C516.64478966 309.09228226 517.0336837 308.05313675 517.43436241 306.98250198 C520.50280694 298.86024433 523.74349154 290.96510396 529.25589561 284.13142776 C529.91589561 284.13142776 530.57589561 284.13142776 531.25589561 284.13142776 C531.25589561 283.47142776 531.25589561 282.81142776 531.25589561 282.13142776 C531.91589561 282.13142776 532.57589561 282.13142776 533.25589561 282.13142776 C533.25589561 281.47142776 533.25589561 280.81142776 533.25589561 280.13142776 C533.91589561 280.13142776 534.57589561 280.13142776 535.25589561 280.13142776 C535.25589561 279.47142776 535.25589561 278.81142776 535.25589561 278.13142776 C538.41277498 275.55256856 541.85462165 273.37374912 545.25589561 271.13142776 C546.32839561 270.40955276 547.40089561 269.68767776 548.50589561 268.94392776 C557.02828564 264.37624309 566.08816763 262.76899736 575.63089561 262.69392776 C576.36735313 262.68393753 577.10381065 262.6739473 577.86258507 262.66365433 C583.25020074 262.74864207 587.28253536 264.08295242 592.25589561 266.13142776 C594.24546347 266.52223574 596.24396539 266.87993649 598.25589561 267.13142776 C598.25589561 267.79142776 598.25589561 268.45142776 598.25589561 269.13142776 C598.98292686 269.22424026 599.70995811 269.31705276 600.45902061 269.41267776 C605.65416833 270.74774366 609.28977487 274.66255201 613.25589561 278.13142776 C614.03706749 278.80431839 614.81823936 279.47720901 615.62308311 280.17049026 C623.31399111 287.27593122 629.02019617 296.37923125 632.00589561 306.44392776 C632.62464561 308.26924026 632.62464561 308.26924026 633.25589561 310.13142776 C636.78695922 311.70712822 640.9018263 311.29378044 644.71146202 311.30842972 C645.4567617 311.31500092 646.20206139 311.32157211 646.96994591 311.32834244 C649.43245112 311.348024 651.89489538 311.35972871 654.35745811 311.36970901 C655.20184818 311.37378454 656.04623825 311.37786007 656.9162159 311.3820591 C661.3886522 311.40290145 665.86105801 311.41720912 670.33353233 311.42659378 C674.93324746 311.43763326 679.53247552 311.47200973 684.13201904 311.51176548 C687.68558153 311.53802436 691.23902978 311.54629397 694.79268074 311.54987526 C696.48701186 311.55472005 698.1813386 311.56627332 699.87557411 311.58491325 C709.07607015 311.6798171 716.89722275 311.45558484 725.25589561 307.13142776 C726.24589561 306.80142776 727.23589561 306.47142776 728.25589561 306.13142776 C728.25589561 305.47142776 728.25589561 304.81142776 728.25589561 304.13142776 C728.91589561 304.13142776 729.57589561 304.13142776 730.25589561 304.13142776 C730.52402061 303.40955276 730.79214561 302.68767776 731.06839561 301.94392776 C732.25589561 299.13142776 732.25589561 299.13142776 733.81839561 296.56892776 C736.28899508 292.37965041 736.38451098 288.75082178 736.40115929 283.92927933 C736.40753914 282.67407486 736.41391899 281.41887039 736.42049217 280.12562943 C736.42202138 278.75777093 736.42313506 277.38991192 736.42386436 276.02205276 C736.42708019 274.61203859 736.4304445 273.20202475 736.43395042 271.79201126 C736.43993413 268.83645734 736.4417912 265.88093263 736.44119835 262.92537308 C736.44109699 259.15514451 736.45472551 255.38510536 736.47197056 251.61492157 C736.48314258 248.70138582 736.48511593 245.78789503 736.48458862 242.87434006 C736.48576182 241.48540217 736.49014616 240.09646286 736.49792099 238.70754623 C736.53462345 231.47122063 736.30846603 225.07671184 734.25589561 218.13142776 C734.25589561 216.81142776 734.25589561 215.49142776 734.25589561 214.13142776 C733.59589561 214.13142776 732.93589561 214.13142776 732.25589561 214.13142776 C732.25589561 212.15142776 732.25589561 210.17142776 732.25589561 208.13142776 C731.59589561 208.13142776 730.93589561 208.13142776 730.25589561 208.13142776 C729.59589561 204.83142776 728.93589561 201.53142776 728.25589561 198.13142776 C727.59589561 198.13142776 726.93589561 198.13142776 726.25589561 198.13142776 C726.13214561 197.26517776 726.13214561 197.26517776 726.00589561 196.38142776 C725.40265598 193.99382512 725.40265598 193.99382512 723.38089561 192.31892776 C721.15419922 190.0267403 720.38614281 188.01535253 719.24027061 185.08064651 C717.31783789 181.27392457 714.37069336 178.02105941 711.25589561 175.13142776 C710.59589561 175.13142776 709.93589561 175.13142776 709.25589561 175.13142776 C708.92589561 174.14142776 708.59589561 173.15142776 708.25589561 172.13142776 C705.87198369 169.48263673 703.69913075 167.3952582 700.63089561 165.56892776 C698.11070813 164.04355113 696.85653374 162.57450701 695.25589561 160.13142776 C695.58589561 159.80142776 695.91589561 159.47142776 696.25589561 159.13142776 C695.59589561 158.80142776 694.93589561 158.47142776 694.25589561 158.13142776 C694.25589561 157.47142776 694.25589561 156.81142776 694.25589561 156.13142776 C693.59589561 156.13142776 692.93589561 156.13142776 692.25589561 156.13142776 C690.5682671 154.48598996 688.90186072 152.818542 687.25589561 151.13142776 C686.59589561 150.80142776 685.93589561 150.47142776 685.25589561 150.13142776 C684.59589561 149.14142776 683.93589561 148.15142776 683.25589561 147.13142776 C682.27941545 146.10844854 681.27458223 145.11238525 680.25589561 144.13142776 C676.25589561 140.13142776 672.25589561 136.13142776 668.25589561 132.13142776 C667.36902061 131.28580276 666.48214561 130.44017776 665.56839561 129.56892776 C663.51957129 127.40935618 662.4844811 125.7776119 661.25589561 123.13142776 C660.59589561 122.80142776 659.93589561 122.47142776 659.25589561 122.13142776 C659.25589561 121.47142776 659.25589561 120.81142776 659.25589561 120.13142776 C658.26589561 119.80142776 657.27589561 119.47142776 656.25589561 119.13142776 C654.25589561 117.13142776 654.25589561 117.13142776 652.44339561 114.75642776 C649.46276549 111.17967162 646.11325287 108.70299927 642.25589561 106.13142776 C641.80214561 105.16205276 641.34839561 104.19267776 640.88089561 103.19392776 C639.05885849 99.76008856 637.62194003 98.90303009 634.25589561 97.13142776 C633.92589561 96.47142776 633.59589561 95.81142776 633.25589561 95.13142776 C632.59589561 94.47142776 631.93589561 93.81142776 631.25589561 93.13142776 C627.25589561 88.42554541 627.25589561 88.42554541 627.25589561 86.13142776 C626.32777061 85.69830276 626.32777061 85.69830276 625.38089561 85.25642776 C622.39591197 83.67614231 620.58539555 81.36785117 618.44339561 78.81892776 C615.84443199 75.77316894 613.12438296 72.92820293 610.25589561 70.13142776 C609.74800499 69.60162308 609.24011436 69.07181839 608.71683311 68.52595901 C605.46013207 65.1252401 605.46013207 65.1252401 601.25589561 63.13142776 C601.25589561 62.47142776 601.25589561 61.81142776 601.25589561 61.13142776 C600.59589561 61.13142776 599.93589561 61.13142776 599.25589561 61.13142776 C599.02902061 60.40955276 598.80214561 59.68767776 598.56839561 58.94392776 C596.49093102 54.49221793 593.46540949 51.87772356 589.31839561 49.31892776 C586.45970375 47.277005 585.60559879 46.26994279 583.81839561 43.44392776 C574.62770514 30.48021699 553.91918989 24.35767513 539.25589561 21.13142776 C536.23638104 20.65277288 533.30816856 20.34562236 530.25589561 20.13142776 C530.25589561 20.46142776 530.25589561 20.79142776 530.25589561 21.13142776 C353.37589561 21.13142776 176.49589561 21.13142776 -5.74410439 21.13142776 C-5.74410439 20.47142776 -5.74410439 19.81142776 -5.74410439 19.13142776 C-6.79597939 19.03861526 -6.79597939 19.03861526 -7.86910439 18.94392776 C-11.86344784 17.81509157 -13.95266995 16.1887131 -16.74410439 13.13142776 C-16.98890482 8.56181956 -16.26558867 6.7465118 -13.30660439 3.25642776 C-8.94329092 -0.36192975 -5.46787278 -0.01114981 0 0 Z M-5.74410439 18.13142776 C-1.74410439 19.13142776 -1.74410439 19.13142776 -1.74410439 19.13142776 Z M525.25589561 18.13142776 C529.25589561 19.13142776 529.25589561 19.13142776 529.25589561 19.13142776 Z M131.10745811 297.55330276 C129.25243564 300.13624545 127.92005589 302.60373786 126.63089561 305.50642776 C126.22612999 306.40103714 125.82136436 307.29564651 125.40433311 308.21736526 C122.99228488 314.33773256 121.91260178 319.74045159 121.94339561 326.25642776 C121.92728233 326.9460762 121.91116905 327.63572464 121.89456749 328.34627151 C121.89025388 332.85830894 122.62754391 335.49502587 125.25589561 339.13142776 C125.72769249 339.90744339 126.19948936 340.68345901 126.68558311 341.48299026 C129.48704683 345.88961697 131.55625026 348.65105939 136.25589561 351.13142776 C136.53948936 351.77209183 136.82308311 352.41275589 137.11527061 353.07283401 C139.31605621 357.04479979 144.12815284 357.82671467 148.25589561 359.13142776 C160.27256744 362.30026863 171.55397587 361.60595832 182.56839561 355.44392776 C191.33342612 349.73188541 196.61556007 342.10285384 199.00589561 331.94392776 C200.10087937 315.8201056 200.10087937 315.8201056 194.25589561 301.13142776 C193.59589561 301.13142776 192.93589561 301.13142776 192.25589561 301.13142776 C192.17339561 300.51267776 192.09089561 299.89392776 192.00589561 299.25642776 C191.0176412 296.45637358 189.85229576 296.39028844 187.25589561 295.13142776 C186.95683311 294.49334183 186.65777061 293.85525589 186.34964561 293.19783401 C184.43859407 289.58731163 180.89027615 288.65673773 177.25589561 287.13142776 C176.56109093 286.82849808 175.86628624 286.52556839 175.15042686 286.21345901 C159.49747168 280.14045454 142.06803156 285.19774724 131.10745811 297.55330276 Z M544.94339561 297.50642776 C542.07806415 301.1078803 540.08633447 304.92548605 538.25589561 309.13142776 C537.80536827 310.05375198 537.80536827 310.05375198 537.34573936 310.99470901 C534.18900175 318.08635678 534.12435229 325.2567491 536.28714561 332.66267776 C539.96127178 342.0521113 545.74985159 351.77996064 555.20511436 356.32283401 C555.88187218 356.58966995 556.55862999 356.85650589 557.25589561 357.13142776 C558.19046593 357.5117012 559.12503624 357.89197464 560.08792686 358.28377151 C571.21675971 362.28046239 581.85376205 361.85430098 592.79495811 357.34627151 C602.1463626 352.72994327 608.84236 345.05484768 612.25589561 335.13142776 C614.42166125 326.27585274 614.66465703 317.97693497 612.25589561 309.13142776 C611.26589561 308.14142776 611.26589561 308.14142776 610.25589561 307.13142776 C609.78152061 305.99705276 609.30714561 304.86267776 608.81839561 303.69392776 C607.44280287 300.5575763 606.76341621 299.23774506 604.25589561 297.13142776 C603.63714561 296.49205276 603.01839561 295.85267776 602.38089561 295.19392776 C593.94849978 287.00954357 584.17396381 283.72664687 572.54886436 283.85408401 C561.91674791 284.7495529 552.12645076 289.64268411 544.94339561 297.50642776 Z M419.25589561 310.13142776 C423.25589561 311.13142776 423.25589561 311.13142776 423.25589561 311.13142776 Z M635.25589561 330.13142776 C635.25589561 330.46142776 635.25589561 330.79142776 635.25589561 331.13142776 C637.89589561 331.13142776 640.53589561 331.13142776 643.25589561 331.13142776 C643.25589561 330.80142776 643.25589561 330.47142776 643.25589561 330.13142776 C640.61589561 330.13142776 637.97589561 330.13142776 635.25589561 330.13142776 Z " fill="#95D6C6" transform="translate(401.744104385376,141.86857223510742)"/>
<path d="M0 0 C1.25004407 -0.00597315 2.50008814 -0.01194629 3.78801233 -0.01810044 C5.17247198 -0.00954185 6.55692993 -0.00070507 7.94138622 0.00837994 C9.41413212 0.0070717 10.88687735 0.00444494 12.35961884 0.00061244 C16.40737172 -0.00610093 20.4548868 0.00591177 24.50260937 0.02094662 C28.86725206 0.03389048 33.23188111 0.02951869 37.59653759 0.0272398 C45.15884934 0.02566602 52.7210835 0.03508616 60.28337574 0.05195332 C71.21719619 0.07632456 82.15097908 0.08414667 93.08482375 0.08791729 C110.82383163 0.09448472 128.56279814 0.11445379 146.30178356 0.14282513 C163.53452885 0.17035815 180.76726291 0.19159544 198.00002575 0.20434856 C199.06208256 0.20513673 200.12413937 0.20592491 201.21837971 0.20673696 C206.54635584 0.21065204 211.87433204 0.21444318 217.2023083 0.21817267 C261.40989316 0.24927765 305.61743291 0.30212138 349.82497692 0.36914349 C349.82497692 1.02914349 349.82497692 1.68914349 349.82497692 2.36914349 C350.58810192 2.36914349 351.35122692 2.36914349 352.13747692 2.36914349 C354.82497692 3.36914349 354.82497692 3.36914349 355.89528942 5.04101849 C357.26808963 8.33079196 357.96994438 10.57182245 357.32497692 14.11914349 C355.45751739 16.92033278 353.61673682 18.47837583 350.82497692 20.36914349 C347.921794 20.87169081 347.921794 20.87169081 344.65109634 20.87530136 C343.40126907 20.88634905 342.1514418 20.89739674 340.86374098 20.9087792 C339.47948467 20.90082214 338.0952305 20.89248446 336.71097851 20.88380718 C335.23837857 20.88913207 333.76578407 20.89619743 332.29319996 20.90485424 C328.24560202 20.92351644 324.19836907 20.91716442 320.15075576 20.90670121 C315.78596563 20.89971928 311.42125124 20.91569947 307.05648327 20.92869854 C298.50523316 20.95036082 289.95411602 20.95020593 281.40284748 20.942073 C274.4536337 20.93577765 267.50445876 20.93690576 260.5552454 20.94334507 C259.56685122 20.94424672 258.57845705 20.94514838 257.56011153 20.94607736 C255.55230458 20.94792853 253.54449764 20.94979109 251.5366907 20.95166492 C232.70061738 20.9682512 213.86461891 20.95951719 195.02855008 20.94267934 C177.78986297 20.92798218 160.55135016 20.94260955 143.3126855 20.9714495 C125.61874502 21.00083103 107.92488502 21.01181938 90.23092121 21.0022673 C88.23012222 21.00124473 86.22932322 21.00025012 84.22852421 20.99928379 C83.24405605 20.9988074 82.2595879 20.99833101 81.24528738 20.99784018 C74.30398575 20.99567438 67.36276017 21.00548899 60.42147541 21.02005482 C51.96284117 21.03755681 43.50442916 21.03749155 35.04580373 21.01470316 C30.72904651 21.0035414 26.41268113 21.00044195 22.09594059 21.01900387 C18.14491239 21.03577478 14.19461881 21.02950442 10.24363851 21.00478708 C8.81368046 20.99989213 7.38366354 21.0034513 5.95375461 21.01627452 C-6.06393528 21.11627762 -6.06393528 21.11627762 -9.96742821 18.01347542 C-12.4399218 15.05183882 -13.62767526 13.20057825 -14.17502308 9.36914349 C-12.99517105 5.82958739 -11.94862023 3.94115379 -8.93986827 1.7164337 C-5.70968399 0.14238692 -3.58284789 -0.0037807 0 0 Z " fill="#97D9C9" transform="translate(192.17502307891846,286.63085651397705)"/>
<path d="M0 0 C1.19427387 -0.00785502 1.19427387 -0.00785502 2.41267449 -0.01586872 C5.08344031 -0.03088359 7.7540148 -0.03157419 10.42481995 -0.03224182 C12.3384585 -0.0398622 14.25209398 -0.04828949 16.16572571 -0.0574646 C21.36607783 -0.0794259 26.56637115 -0.08821047 31.7667644 -0.09329104 C35.01451044 -0.09693207 38.26224101 -0.10317075 41.50998116 -0.11029243 C52.83658146 -0.13479064 64.16313591 -0.14784006 75.48976135 -0.15138245 C86.05422804 -0.15502008 96.61840462 -0.18493093 107.18278259 -0.22678703 C116.24869392 -0.26144941 125.3145089 -0.27693017 134.38048607 -0.27762848 C139.79713844 -0.27842255 145.21349526 -0.28722106 150.63007927 -0.31562614 C155.72323052 -0.34173796 160.81583966 -0.34405054 165.9090271 -0.3279705 C167.77912131 -0.32615064 169.64924621 -0.33289503 171.51927376 -0.34878922 C174.07095001 -0.36915643 176.6207127 -0.35875457 179.17236328 -0.34057617 C180.28452663 -0.36037612 180.28452663 -0.36037612 181.41915792 -0.38057607 C185.29910086 -0.31736348 187.00677315 0.16140534 190.0896616 2.59382534 C192.65941322 5.93738892 193.07480418 8.08147479 193.14967346 12.27415466 C192.58717346 15.02415466 192.58717346 15.02415466 191.14967346 17.27415466 C186.51319368 20.16516193 182.55183239 20.7029078 177.21069336 20.64837646 C176.03835753 20.65433807 176.03835753 20.65433807 174.84233814 20.66042012 C172.23292625 20.67001687 169.62406008 20.65824111 167.0146637 20.64646912 C165.14013975 20.64889793 163.2656171 20.65261811 161.39109802 20.65753174 C156.30649973 20.66693145 151.22209424 20.65752331 146.13751101 20.64419961 C140.81604915 20.63287844 135.49459667 20.6369931 130.17312622 20.63894653 C121.23794914 20.63982922 112.30284796 20.62875375 103.36769104 20.6103363 C93.03617288 20.58916262 82.70476586 20.58566035 72.3732304 20.59189826 C62.43453595 20.59759183 52.49588065 20.59194675 42.55719185 20.58072472 C38.32723835 20.57607931 34.0973088 20.57520463 29.86735344 20.57731056 C24.88756505 20.57919348 19.90788987 20.57108921 14.92812729 20.55525017 C13.09997463 20.55100601 11.27181048 20.55015765 9.44365501 20.55294037 C6.94953554 20.55616097 4.45575459 20.54708347 1.96166992 20.53485107 C1.23715572 20.5386304 0.51264152 20.54240972 -0.23382765 20.54630357 C-4.22962443 20.51160311 -7.24379137 19.99445894 -10.85032654 18.27415466 C-11.59282654 18.04727966 -12.33532654 17.82040466 -13.10032654 17.58665466 C-14.85032654 16.27415466 -14.85032654 16.27415466 -15.85032654 13.08665466 C-15.85032654 8.08482485 -14.77093279 6.29985518 -11.85032654 2.27415466 C-8.23012391 -0.3133177 -4.27529192 -0.01388405 0 0 Z " fill="#97D9C9" transform="translate(288.85032653808594,220.72584533691406)"/>
<path d="M0 0 C0.79956057 -0.00735338 1.59912113 -0.01470675 2.42291081 -0.02228296 C5.10513753 -0.04432923 7.78720923 -0.05203933 10.46951294 -0.05966187 C12.39138276 -0.07219297 14.31324774 -0.08548674 16.23510742 -0.0994873 C22.54774611 -0.14154041 28.86038565 -0.1622851 35.17312622 -0.18222046 C37.3460813 -0.19031575 39.51903587 -0.1985496 41.6919899 -0.20692062 C51.89763132 -0.24501293 62.10324384 -0.27348085 72.30894268 -0.29014456 C84.09414638 -0.30970491 95.87860035 -0.36238769 107.66353977 -0.44314635 C116.77107636 -0.50341922 125.87839767 -0.53307727 134.98612988 -0.53970659 C140.42706451 -0.54441223 145.86719764 -0.56239063 151.30791855 -0.61262894 C156.42509844 -0.65911819 161.54094708 -0.66768859 166.65828323 -0.64710617 C168.5360532 -0.64611349 170.4138879 -0.65881329 172.29145813 -0.68621826 C186.44286333 -0.88121493 186.44286333 -0.88121493 190.58707047 2.02629471 C193.12432745 5.23423001 194.06500488 7.38596678 194.30593872 11.48184204 C192.78676602 15.07988266 191.15193395 16.82418059 188.11843872 19.29434204 C185.36212409 19.79129652 183.21957362 19.97912986 180.46934509 19.94030762 C179.70694336 19.94936886 178.94454163 19.9584301 178.15903682 19.96776593 C175.60835592 19.99202447 173.05908482 19.98077333 170.5083313 19.96963501 C168.67833688 19.9797256 166.84835336 19.99199188 165.01838684 20.00627136 C160.05165566 20.03872008 155.08533875 20.04032668 150.11852098 20.03617239 C144.92503672 20.03676966 139.73169907 20.06473159 134.5382843 20.08953857 C125.81995263 20.12733107 117.10173992 20.14687903 108.3833313 20.15371704 C96.07553773 20.16342454 83.76803997 20.20763276 71.4603554 20.25794387 C62.94626616 20.29145293 54.43214917 20.31667232 45.91802764 20.3403573 C43.85047773 20.34615519 41.78292848 20.35219233 39.71537995 20.35846472 C33.82486825 20.37606418 27.93439299 20.38852882 22.04385567 20.39251518 C20.25636276 20.39443331 18.46887079 20.39805373 16.68138504 20.40346336 C14.24976024 20.41045687 11.81821419 20.41123689 9.38658142 20.41027832 C8.67210132 20.41367151 7.95762122 20.4170647 7.2214902 20.42056072 C2.34696744 20.4086064 2.34696744 20.4086064 0.11843872 19.29434204 C-1.13968628 19.33559204 -2.39781128 19.37684204 -3.69406128 19.41934204 C-7.53715918 19.47534347 -9.82626351 18.77677148 -12.88156128 16.29434204 C-12.88156128 15.63434204 -12.88156128 14.97434204 -12.88156128 14.29434204 C-13.54156128 13.96434204 -14.20156128 13.63434204 -14.88156128 13.29434204 C-15.75656128 11.10684204 -15.75656128 11.10684204 -15.88156128 8.29434204 C-11.90380229 0.78079728 -8.07155474 -0.00398481 0 0 Z " fill="#97D9C9" transform="translate(328.8815612792969,354.7056579589844)"/>
<path d="M0 0 C1.33933549 -0.00262956 1.33933549 -0.00262956 2.70572826 -0.00531223 C5.71908457 -0.00999061 8.73239301 -0.00750202 11.74575138 -0.00507832 C13.91941033 -0.00694536 16.09306895 -0.00924563 18.26672703 -0.01194364 C24.25666977 -0.01808115 30.2465986 -0.01792576 36.23654377 -0.01674926 C42.68993765 -0.01654575 49.143327 -0.02205925 55.59671879 -0.02680683 C68.24587497 -0.03534234 80.89502717 -0.0378751 93.54418593 -0.03841921 C103.82150959 -0.03887841 114.09883173 -0.04093495 124.3761549 -0.04411983 C127.3323668 -0.04501735 130.28857871 -0.04590716 133.24479061 -0.04679471 C133.97966937 -0.04701576 134.71454813 -0.04723681 135.47169595 -0.04746456 C156.14702658 -0.05362016 176.8223567 -0.05756497 197.49768829 -0.05712128 C198.27746549 -0.0571057 199.0572427 -0.05709012 199.86064951 -0.05707407 C203.81306786 -0.05699096 207.76548621 -0.05689192 211.71790456 -0.05678936 C212.89539535 -0.05675944 212.89539535 -0.05675944 214.09667383 -0.05672892 C215.68412266 -0.05668848 217.27157148 -0.05664669 218.85902031 -0.05660353 C243.56443903 -0.05599059 268.26984403 -0.06350012 292.97525883 -0.07717609 C320.71793819 -0.09252698 348.46060855 -0.10114293 376.20329243 -0.10021287 C379.15981869 -0.10013824 382.11634495 -0.10008953 385.07287121 -0.10005856 C385.80086839 -0.1000469 386.52886558 -0.10003525 387.27892329 -0.10002324 C399.0084959 -0.09999243 410.73805664 -0.10638585 422.46762572 -0.11499082 C434.24957192 -0.12345564 446.03149922 -0.12429442 457.81344681 -0.1178815 C464.19977511 -0.11460478 470.5860602 -0.11460094 476.97238445 -0.12323475 C482.81306456 -0.13104994 488.65366686 -0.12971973 494.49434496 -0.12095062 C496.61273944 -0.11940458 498.7311396 -0.12127286 500.84952741 -0.12681069 C503.71878077 -0.13381748 506.58775713 -0.12861924 509.45700073 -0.12025452 C510.70381812 -0.12770679 510.70381812 -0.12770679 511.97582373 -0.13530961 C516.20401255 -0.10907301 519.43159052 0.17787282 523.29142094 2.12863445 C523.29142094 2.45863445 523.29142094 2.78863445 523.29142094 3.12863445 C346.41142094 3.12863445 169.53142094 3.12863445 -12.70857906 3.12863445 C-12.70857906 2.46863445 -12.70857906 1.80863445 -12.70857906 1.12863445 C-8.47563697 -0.05616056 -4.3658794 -0.01076509 0 0 Z " fill="#465F58" transform="translate(408.7085790634155,159.87136554718018)"/>
<path d="M0 0 C84.15 0 168.3 0 255 0 C255 0.33 255 0.66 255 1 C170.85 1 86.7 1 0 1 C0 0.67 0 0.34 0 0 Z " fill="#465F58" transform="translate(642,473)"/>
<path d="M0 0 C60.06 0 120.12 0 182 0 C182 0.33 182 0.66 182 1 C121.94 1 61.88 1 0 1 C0 0.67 0 0.34 0 0 Z " fill="#000100" transform="translate(333,375)"/>
<path d="M0 0 C28.38 0 56.76 0 86 0 C86 0.33 86 0.66 86 1 C57.62 1 29.24 1 0 1 C0 0.67 0 0.34 0 0 Z " fill="#465F58" transform="translate(396,473)"/>
<path d="M0 0 C0.33 0 0.66 0 1 0 C1 19.47 1 38.94 1 59 C0.67 59 0.34 59 0 59 C0 39.53 0 20.06 0 0 Z " fill="#000100" transform="translate(1160,371)"/>
<path d="M0 0 C1.04976964 3.14930893 1.10131595 5.38814456 1.0625 8.6875 C1.05347656 9.68136719 1.04445313 10.67523438 1.03515625 11.69921875 C1.02355469 12.45847656 1.01195312 13.21773438 1 14 C0.34 13.67 -0.32 13.34 -1 13 C-1.02686553 11.02090602 -1.04633375 9.04171029 -1.0625 7.0625 C-1.07410156 5.96035156 -1.08570313 4.85820312 -1.09765625 3.72265625 C-1 1 -1 1 0 0 Z " fill="#465F58" transform="translate(939,458)"/>
<path d="M0 0 C1.98 0 3.96 0 6 0 C6.33 0.66 6.66 1.32 7 2 C4.69 2 2.38 2 0 2 C0 1.34 0 0.68 0 0 Z " fill="#465F58" transform="translate(323,374)"/>
<path d="M0 0 C3.96 0 7.92 0 12 0 C12 0.33 12 0.66 12 1 C8.04 1 4.08 1 0 1 C0 0.67 0 0.34 0 0 Z " fill="#000100" transform="translate(971,427)"/>
<path d="M0 0 C3.96 0 7.92 0 12 0 C12 0.33 12 0.66 12 1 C8.04 1 4.08 1 0 1 C0 0.67 0 0.34 0 0 Z " fill="#000100" transform="translate(558,427)"/>
<path d="M0 0 C0.33 0 0.66 0 1 0 C1 3.3 1 6.6 1 10 C0.67 10 0.34 10 0 10 C0 6.7 0 3.4 0 0 Z " fill="#000100" transform="translate(525,460)"/>
<path d="M0 0 C2.97 0 5.94 0 9 0 C9 0.33 9 0.66 9 1 C6.03 1 3.06 1 0 1 C0 0.67 0 0.34 0 0 Z " fill="#000100" transform="translate(458,241)"/>
<path d="M0 0 C2.64 0 5.28 0 8 0 C8 0.33 8 0.66 8 1 C5.36 1 2.72 1 0 1 C0 0.67 0 0.34 0 0 Z " fill="#000100" transform="translate(292,241)"/>
<path d="M0 0 C2.31 0 4.62 0 7 0 C7 0.33 7 0.66 7 1 C4.69 1 2.38 1 0 1 C0 0.67 0 0.34 0 0 Z " fill="#000100" transform="translate(967,521)"/>
<path d="M0 0 C2.31 0 4.62 0 7 0 C7 0.33 7 0.66 7 1 C4.69 1 2.38 1 0 1 C0 0.67 0 0.34 0 0 Z " fill="#000100" transform="translate(567,521)"/>
<path d="M0 0 C2.31 0 4.62 0 7 0 C7 0.33 7 0.66 7 1 C4.69 1 2.38 1 0 1 C0 0.67 0 0.34 0 0 Z " fill="#517068" transform="translate(560,501)"/>
<path d="M0 0 C1.98 0 3.96 0 6 0 C6 0.33 6 0.66 6 1 C4.02 1 2.04 1 0 1 C0 0.67 0 0.34 0 0 Z " fill="#000100" transform="translate(981,521)"/>
<path d="M0 0 C1.98 0 3.96 0 6 0 C6 0.33 6 0.66 6 1 C4.02 1 2.04 1 0 1 C0 0.67 0 0.34 0 0 Z " fill="#000100" transform="translate(554,521)"/>
<path d="M0 0 C0.66 0 1.32 0 2 0 C2 0.99 2 1.98 2 3 C1.34 3 0.68 3 0 3 C0 2.01 0 1.02 0 0 Z " fill="#465F58" transform="translate(482,230)"/>
<path d="M0 0 C1.65 0 3.3 0 5 0 C5 0.33 5 0.66 5 1 C3.35 1 1.7 1 0 1 C0 0.67 0 0.34 0 0 Z " fill="#465F58" transform="translate(975,521)"/>
<path d="M0 0 C0.99 0.33 1.98 0.66 3 1 C2.01 1.33 1.02 1.66 0 2 C0 1.34 0 0.68 0 0 Z " fill="#465F58" transform="translate(962,519)"/>
<path d="M0 0 C1.65 0 3.3 0 5 0 C5 0.33 5 0.66 5 1 C3.35 1 1.7 1 0 1 C0 0.67 0 0.34 0 0 Z " fill="#465F58" transform="translate(973,501)"/>
<path d="M0 0 C1 4 1 4 1 4 Z " fill="#000100" transform="translate(1158,359)"/>
<path d="M0 0 C3 1 3 1 3 1 Z " fill="#465F58" transform="translate(562,521)"/>
<path d="M0 0 C0.66 0.66 1.32 1.32 2 2 C1.34 2 0.68 2 0 2 C0 1.34 0 0.68 0 0 Z " fill="#465F58" transform="translate(549,519)"/>
<path d="M0 0 C3 1 3 1 3 1 Z " fill="#000100" transform="translate(579,519)"/>
<path d="M0 0 C3 1 3 1 3 1 Z " fill="#000100" transform="translate(545,519)"/>
<path d="" fill="#000100" transform="translate(0,0)"/>
<path d="M0 0 C3 1 3 1 3 1 Z " fill="#000100" transform="translate(280,241)"/>
<path d="M0 0 C3 1 3 1 3 1 Z " fill="#000100" transform="translate(953,167)"/>
<path d="M0 0 C3 1 3 1 3 1 Z " fill="#2E3F3A" transform="translate(942,164)"/>
<path d="M0 0 C3 1 3 1 3 1 Z " fill="#000100" transform="translate(938,163)"/>
<path d="M0 0 C2 1 2 1 2 1 Z " fill="#465F58" transform="translate(990,520)"/>
<path d="M0 0 C2 1 2 1 2 1 Z " fill="#465F58" transform="translate(576,520)"/>
<path d="M0 0 C2 1 2 1 2 1 Z " fill="#000100" transform="translate(994,519)"/>
<path d="M0 0 C2 1 2 1 2 1 Z " fill="#000100" transform="translate(959,519)"/>
<path d="M0 0 C2 1 2 1 2 1 Z " fill="#465F58" transform="translate(956,518)"/>
<path d="M0 0 C2 1 2 1 2 1 Z " fill="#000100" transform="translate(999,517)"/>
<path d="M0 0 C2 1 2 1 2 1 Z " fill="#000100" transform="translate(585,517)"/>
<path d="M0 0 C2 1 2 1 2 1 Z " fill="#000100" transform="translate(588,516)"/>
<path d="M0 0 C2 1 2 1 2 1 Z " fill="#465F58" transform="translate(1005,514)"/>
<path d="M0 0 C2 1 2 1 2 1 Z " fill="#465F58" transform="translate(525,508)"/>
<path d="" fill="#000100" transform="translate(0,0)"/>
<path d="" fill="#000100" transform="translate(0,0)"/>
<path d="" fill="#000100" transform="translate(0,0)"/>
<path d="M0 0 C2 1 2 1 2 1 Z " fill="#465F58" transform="translate(525,475)"/>
<path d="M0 0 C2 1 2 1 2 1 Z " fill="#23302C" transform="translate(1122,472)"/>
<path d="M0 0 C2 1 2 1 2 1 Z " fill="#000100" transform="translate(1125,471)"/>
<path d="" fill="#000100" transform="translate(0,0)"/>
<path d="" fill="#000100" transform="translate(0,0)"/>
<path d="" fill="#000100" transform="translate(0,0)"/>
<path d="" fill="#000100" transform="translate(0,0)"/>
<path d="M0 0 C2 1 2 1 2 1 Z " fill="#000100" transform="translate(319,374)"/>
<path d="" fill="#23302C" transform="translate(0,0)"/>
<path d="" fill="#000100" transform="translate(0,0)"/>
<path d="M0 0 C2 1 2 1 2 1 Z " fill="#000100" transform="translate(474,241)"/>
<path d="" fill="#4C6D65" transform="translate(0,0)"/>
<path d="M0 0 C2 1 2 1 2 1 Z " fill="#465F58" transform="translate(967,173)"/>
<path d="M0 0 C2 1 2 1 2 1 Z " fill="#23302C" transform="translate(950,166)"/>
<path d="M0 0 C2 1 2 1 2 1 Z " fill="#000100" transform="translate(947,165)"/>
<path d="" fill="#000100" transform="translate(0,0)"/>
<path d="" fill="#000100" transform="translate(0,0)"/>
<path d="" fill="#000100" transform="translate(0,0)"/>
<path d="" fill="#000100" transform="translate(0,0)"/>
<path d="" fill="#465F58" transform="translate(0,0)"/>
<path d="" fill="#000100" transform="translate(0,0)"/>
<path d="" fill="#000100" transform="translate(0,0)"/>
<path d="" fill="#000100" transform="translate(0,0)"/>
<path d="" fill="#465F58" transform="translate(0,0)"/>
<path d="" fill="#000100" transform="translate(0,0)"/>
<path d="" fill="#000100" transform="translate(0,0)"/>
<path d="" fill="#000100" transform="translate(0,0)"/>
<path d="" fill="#000100" transform="translate(0,0)"/>
<path d="" fill="#000100" transform="translate(0,0)"/>
<path d="" fill="#000100" transform="translate(0,0)"/>
<path d="" fill="#000100" transform="translate(0,0)"/>
<path d="" fill="#000100" transform="translate(0,0)"/>
<path d="" fill="#000100" transform="translate(0,0)"/>
<path d="" fill="#000100" transform="translate(0,0)"/>
<path d="" fill="#000100" transform="translate(0,0)"/>
<path d="" fill="#000100" transform="translate(0,0)"/>
<path d="" fill="#000100" transform="translate(0,0)"/>
<path d="" fill="#000100" transform="translate(0,0)"/>
<path d="" fill="#465F58" transform="translate(0,0)"/>
<path d="" fill="#000100" transform="translate(0,0)"/>
<path d="" fill="#000100" transform="translate(0,0)"/>
<path d="" fill="#000100" transform="translate(0,0)"/>
<path d="" fill="#000100" transform="translate(0,0)"/>
<path d="" fill="#000100" transform="translate(0,0)"/>
<path d="" fill="#000100" transform="translate(0,0)"/>
<path d="" fill="#000100" transform="translate(0,0)"/>
<path d="" fill="#000100" transform="translate(0,0)"/>
<path d="" fill="#000100" transform="translate(0,0)"/>
<path d="" fill="#000100" transform="translate(0,0)"/>
<path d="" fill="#000100" transform="translate(0,0)"/>
<path d="" fill="#000100" transform="translate(0,0)"/>
<path d="" fill="#000100" transform="translate(0,0)"/>
<path d="" fill="#000100" transform="translate(0,0)"/>
<path d="" fill="#465F58" transform="translate(0,0)"/>
<path d="" fill="#000100" transform="translate(0,0)"/>
<path d="" fill="#000100" transform="translate(0,0)"/>
<path d="" fill="#000100" transform="translate(0,0)"/>
<path d="" fill="#465F58" transform="translate(0,0)"/>
<path d="" fill="#465F58" transform="translate(0,0)"/>
<path d="" fill="#000100" transform="translate(0,0)"/>
<path d="" fill="#000100" transform="translate(0,0)"/>
<path d="" fill="#465F58" transform="translate(0,0)"/>
<path d="" fill="#465F58" transform="translate(0,0)"/>
<path d="" fill="#000100" transform="translate(0,0)"/>
<path d="" fill="#000100" transform="translate(0,0)"/>
<path d="" fill="#000100" transform="translate(0,0)"/>
<path d="" fill="#000100" transform="translate(0,0)"/>
<path d="" fill="#000100" transform="translate(0,0)"/>
<path d="" fill="#000100" transform="translate(0,0)"/>
<path d="" fill="#000100" transform="translate(0,0)"/>
<path d="" fill="#000100" transform="translate(0,0)"/>
<path d="" fill="#000100" transform="translate(0,0)"/>
<path d="" fill="#000100" transform="translate(0,0)"/>
<path d="" fill="#000100" transform="translate(0,0)"/>
<path d="" fill="#000100" transform="translate(0,0)"/>
<path d="" fill="#000100" transform="translate(0,0)"/>
<path d="" fill="#000100" transform="translate(0,0)"/>
<path d="" fill="#000100" transform="translate(0,0)"/>
<path d="" fill="#000100" transform="translate(0,0)"/>
<path d="" fill="#000100" transform="translate(0,0)"/>
<path d="" fill="#465F58" transform="translate(0,0)"/>
<path d="" fill="#000100" transform="translate(0,0)"/>
<path d="" fill="#000100" transform="translate(0,0)"/>
<path d="" fill="#000100" transform="translate(0,0)"/>
<path d="" fill="#000100" transform="translate(0,0)"/>
<path d="" fill="#000100" transform="translate(0,0)"/>
<path d="" fill="#000100" transform="translate(0,0)"/>
<path d="" fill="#000100" transform="translate(0,0)"/>
<path d="" fill="#000100" transform="translate(0,0)"/>
<path d="" fill="#000100" transform="translate(0,0)"/>
<path d="" fill="#000100" transform="translate(0,0)"/>
<path d="" fill="#000100" transform="translate(0,0)"/>
<path d="" fill="#000100" transform="translate(0,0)"/>
<path d="" fill="#000100" transform="translate(0,0)"/>
<path d="" fill="#000100" transform="translate(0,0)"/>
<path d="" fill="#000100" transform="translate(0,0)"/>
<path d="" fill="#000100" transform="translate(0,0)"/>
<path d="" fill="#000100" transform="translate(0,0)"/>
<path d="" fill="#000100" transform="translate(0,0)"/>
<path d="" fill="#000100" transform="translate(0,0)"/>
<path d="" fill="#000100" transform="translate(0,0)"/>
<path d="" fill="#000100" transform="translate(0,0)"/>
<path d="" fill="#000100" transform="translate(0,0)"/>
<path d="" fill="#000100" transform="translate(0,0)"/>
<path d="" fill="#000100" transform="translate(0,0)"/>
<path d="" fill="#000100" transform="translate(0,0)"/>
<path d="" fill="#000100" transform="translate(0,0)"/>
<path d="" fill="#000100" transform="translate(0,0)"/>
<path d="" fill="#000100" transform="translate(0,0)"/>
<path d="" fill="#000100" transform="translate(0,0)"/>
<path d="" fill="#000100" transform="translate(0,0)"/>
<path d="" fill="#000100" transform="translate(0,0)"/>
<path d="" fill="#000100" transform="translate(0,0)"/>
<path d="" fill="#000100" transform="translate(0,0)"/>
<path d="" fill="#000100" transform="translate(0,0)"/>
<path d="" fill="#000100" transform="translate(0,0)"/>
<path d="" fill="#000100" transform="translate(0,0)"/>
<path d="" fill="#000100" transform="translate(0,0)"/>
<path d="" fill="#000100" transform="translate(0,0)"/>
<path d="" fill="#000100" transform="translate(0,0)"/>
<path d="" fill="#000100" transform="translate(0,0)"/>
<path d="" fill="#000100" transform="translate(0,0)"/>
<path d="" fill="#000100" transform="translate(0,0)"/>
<path d="" fill="#000100" transform="translate(0,0)"/>
<path d="" fill="#000100" transform="translate(0,0)"/>
<path d="" fill="#000100" transform="translate(0,0)"/>
<path d="" fill="#000100" transform="translate(0,0)"/>
<path d="" fill="#000100" transform="translate(0,0)"/>
<path d="" fill="#000100" transform="translate(0,0)"/>
<path d="" fill="#000100" transform="translate(0,0)"/>
<path d="" fill="#000100" transform="translate(0,0)"/>
<path d="" fill="#000100" transform="translate(0,0)"/>
<path d="" fill="#000100" transform="translate(0,0)"/>
<path d="" fill="#465F58" transform="translate(0,0)"/>
<path d="" fill="#465F58" transform="translate(0,0)"/>
<path d="" fill="#000100" transform="translate(0,0)"/>
<path d="" fill="#000100" transform="translate(0,0)"/>
<path d="" fill="#000100" transform="translate(0,0)"/>
<path d="" fill="#000100" transform="translate(0,0)"/>
<path d="" fill="#000100" transform="translate(0,0)"/>
<path d="" fill="#000100" transform="translate(0,0)"/>
<path d="" fill="#000100" transform="translate(0,0)"/>
<path d="" fill="#000100" transform="translate(0,0)"/>
<path d="" fill="#000100" transform="translate(0,0)"/>
<path d="" fill="#000100" transform="translate(0,0)"/>
<path d="" fill="#000100" transform="translate(0,0)"/>
<path d="" fill="#000100" transform="translate(0,0)"/>
<path d="" fill="#98DACA" transform="translate(0,0)"/>
<path d="" fill="#000100" transform="translate(0,0)"/>
<path d="" fill="#000100" transform="translate(0,0)"/>
<path d="" fill="#000100" transform="translate(0,0)"/>
<path d="" fill="#000100" transform="translate(0,0)"/>
<path d="" fill="#000100" transform="translate(0,0)"/>
<path d="" fill="#000100" transform="translate(0,0)"/>
<path d="" fill="#465F58" transform="translate(0,0)"/>
<path d="" fill="#000100" transform="translate(0,0)"/>
<path d="" fill="#000100" transform="translate(0,0)"/>
<path d="" fill="#465F58" transform="translate(0,0)"/>
<path d="" fill="#000100" transform="translate(0,0)"/>
<path d="" fill="#000100" transform="translate(0,0)"/>
<path d="" fill="#000100" transform="translate(0,0)"/>
<path d="" fill="#000100" transform="translate(0,0)"/>
<path d="" fill="#000100" transform="translate(0,0)"/>
<path d="" fill="#000100" transform="translate(0,0)"/>
<path d="" fill="#000100" transform="translate(0,0)"/>
<path d="" fill="#000100" transform="translate(0,0)"/>
<path d="" fill="#000100" transform="translate(0,0)"/>
<path d="" fill="#000100" transform="translate(0,0)"/>
<path d="" fill="#000100" transform="translate(0,0)"/>
<path d="" fill="#000100" transform="translate(0,0)"/>
<path d="" fill="#000100" transform="translate(0,0)"/>
<path d="" fill="#98DACA" transform="translate(0,0)"/>
<path d="" fill="#98DACA" transform="translate(0,0)"/>
<path d="" fill="#465F58" transform="translate(0,0)"/>
<path d="" fill="#000100" transform="translate(0,0)"/>
<path d="" fill="#000100" transform="translate(0,0)"/>
<path d="" fill="#000100" transform="translate(0,0)"/>
<path d="" fill="#000100" transform="translate(0,0)"/>
<path d="" fill="#000100" transform="translate(0,0)"/>
<path d="" fill="#98DACA" transform="translate(0,0)"/>
<path d="" fill="#000100" transform="translate(0,0)"/>
<path d="" fill="#000100" transform="translate(0,0)"/>
<path d="" fill="#000100" transform="translate(0,0)"/>
<path d="" fill="#000100" transform="translate(0,0)"/>
<path d="" fill="#000100" transform="translate(0,0)"/>
<path d="" fill="#000100" transform="translate(0,0)"/>
<path d="" fill="#000100" transform="translate(0,0)"/>
<path d="" fill="#000100" transform="translate(0,0)"/>
<path d="" fill="#000100" transform="translate(0,0)"/>
<path d="" fill="#000100" transform="translate(0,0)"/>
<path d="" fill="#000100" transform="translate(0,0)"/>
</svg>
